<svg width="66" height="22" viewBox="0 0 66 22" fill="none" xmlns="http://www.w3.org/2000/svg">
<g clip-path="url(#clip0_2079_1931)">
<path d="M10 6H0V16H10V6Z" fill="white" fill-opacity="0.7"/>
<path d="M6.71726 13.8126C6.91869 14.1415 7.18075 14.3832 7.64424 14.3832C8.03361 14.3832 8.28234 14.1886 8.28234 13.9197C8.28234 13.5975 8.02678 13.4834 7.59821 13.2959L7.36329 13.1951C6.68519 12.9062 6.23472 12.5443 6.23472 11.7792C6.23472 11.0745 6.7717 10.538 7.61091 10.538C8.20837 10.538 8.63789 10.7459 8.94742 11.2903L8.21567 11.7602C8.05456 11.4713 7.88075 11.3575 7.61091 11.3575C7.33567 11.3575 7.16122 11.5321 7.16122 11.7602C7.16122 12.0421 7.33583 12.1562 7.739 12.3308L7.97392 12.4315C8.77234 12.7738 9.22313 13.1229 9.22313 13.9076C9.22313 14.7537 8.55853 15.2172 7.66599 15.2172C6.79329 15.2172 6.22948 14.8013 5.95361 14.2562L6.71726 13.8126ZM3.39773 13.894C3.54535 14.1559 3.67964 14.3773 4.00249 14.3773C4.31123 14.3773 4.50599 14.2565 4.50599 13.7869V10.5916H5.44567V13.7996C5.44567 14.7726 4.87519 15.2154 4.04249 15.2154C3.29011 15.2154 2.8544 14.8261 2.63281 14.3571L3.39773 13.894Z" fill="black" fill-opacity="0.5"/>
</g>
<path d="M15.7484 11.7656L16.6884 11.6367C16.7134 12.2383 16.8262 12.6501 17.0267 12.8721C17.2273 13.0941 17.5048 13.2051 17.8592 13.2051C18.1206 13.2051 18.3462 13.146 18.536 13.0278C18.7258 12.9061 18.8565 12.7432 18.9281 12.5391C18.9997 12.3314 19.0355 12.002 19.0355 11.5508V6.12598H20.0775V11.4917C20.0775 12.1506 19.9969 12.6608 19.8358 13.0225C19.6783 13.3841 19.4258 13.6598 19.0785 13.8496C18.7347 14.0394 18.3301 14.1343 17.8646 14.1343C17.1735 14.1343 16.6436 13.9355 16.2748 13.5381C15.9095 13.1406 15.7341 12.5498 15.7484 11.7656ZM25.4448 13.2964C25.0867 13.6007 24.7412 13.8156 24.4082 13.9409C24.0787 14.0662 23.7242 14.1289 23.3447 14.1289C22.7181 14.1289 22.2364 13.9767 21.8999 13.6724C21.5633 13.3644 21.395 12.9723 21.395 12.4961C21.395 12.2168 21.4576 11.9626 21.583 11.7334C21.7119 11.5007 21.8784 11.3145 22.0825 11.1748C22.2902 11.0352 22.5229 10.9295 22.7807 10.8579C22.9705 10.8078 23.257 10.7594 23.6401 10.7129C24.4207 10.6198 24.9954 10.5088 25.3642 10.3799C25.3678 10.2474 25.3696 10.1632 25.3696 10.1274C25.3696 9.73356 25.2783 9.45605 25.0957 9.29492C24.8486 9.0765 24.4816 8.96729 23.9946 8.96729C23.5398 8.96729 23.2032 9.04785 22.9848 9.20898C22.77 9.36654 22.6106 9.64762 22.5068 10.0522L21.5615 9.92334C21.6474 9.51872 21.7889 9.19287 21.9858 8.9458C22.1827 8.69515 22.4674 8.50358 22.8398 8.37109C23.2122 8.23503 23.6437 8.16699 24.1342 8.16699C24.6212 8.16699 25.0169 8.22428 25.3212 8.33887C25.6256 8.45345 25.8494 8.59847 25.9926 8.77393C26.1359 8.9458 26.2361 9.16423 26.2934 9.4292C26.3256 9.59391 26.3418 9.89111 26.3418 10.3208V11.6099C26.3418 12.5086 26.3614 13.078 26.4008 13.3179C26.4438 13.5542 26.5262 13.7816 26.6479 14H25.6381C25.5379 13.7995 25.4734 13.5649 25.4448 13.2964ZM25.3642 11.1372C25.0133 11.2804 24.4869 11.4022 23.7851 11.5024C23.3877 11.5597 23.1066 11.6242 22.9419 11.6958C22.7771 11.7674 22.65 11.873 22.5605 12.0127C22.471 12.1488 22.4262 12.3009 22.4262 12.4692C22.4262 12.7271 22.5229 12.9419 22.7163 13.1138C22.9132 13.2856 23.1997 13.3716 23.5756 13.3716C23.948 13.3716 24.2793 13.291 24.5693 13.1299C24.8593 12.9652 25.0724 12.7414 25.2085 12.4585C25.3123 12.2401 25.3642 11.9178 25.3642 11.4917V11.1372ZM29.4961 14L27.3262 8.2959H28.3467L29.5713 11.7119C29.7038 12.0807 29.8256 12.4639 29.9366 12.8613C30.0225 12.5605 30.1425 12.1989 30.2964 11.7764L31.564 8.2959H32.5577L30.3985 14H29.4961ZM37.1998 13.2964C36.8418 13.6007 36.4962 13.8156 36.1632 13.9409C35.8338 14.0662 35.4793 14.1289 35.0997 14.1289C34.4731 14.1289 33.9915 13.9767 33.6549 13.6724C33.3183 13.3644 33.15 12.9723 33.15 12.4961C33.15 12.2168 33.2127 11.9626 33.338 11.7334C33.4669 11.5007 33.6334 11.3145 33.8375 11.1748C34.0452 11.0352 34.278 10.9295 34.5358 10.8579C34.7255 10.8078 35.012 10.7594 35.3951 10.7129C36.1757 10.6198 36.7504 10.5088 37.1193 10.3799C37.1228 10.2474 37.1246 10.1632 37.1246 10.1274C37.1246 9.73356 37.0333 9.45605 36.8507 9.29492C36.6036 9.0765 36.2366 8.96729 35.7496 8.96729C35.2949 8.96729 34.9583 9.04785 34.7399 9.20898C34.525 9.36654 34.3657 9.64762 34.2618 10.0522L33.3165 9.92334C33.4025 9.51872 33.5439 9.19287 33.7408 8.9458C33.9378 8.69515 34.2225 8.50358 34.5948 8.37109C34.9672 8.23503 35.3987 8.16699 35.8893 8.16699C36.3763 8.16699 36.7719 8.22428 37.0763 8.33887C37.3807 8.45345 37.6044 8.59847 37.7477 8.77393C37.8909 8.9458 37.9912 9.16423 38.0485 9.4292C38.0807 9.59391 38.0968 9.89111 38.0968 10.3208V11.6099C38.0968 12.5086 38.1165 13.078 38.1559 13.3179C38.1989 13.5542 38.2812 13.7816 38.403 14H37.3932C37.2929 13.7995 37.2285 13.5649 37.1998 13.2964ZM37.1193 11.1372C36.7683 11.2804 36.242 11.4022 35.5402 11.5024C35.1427 11.5597 34.8616 11.6242 34.6969 11.6958C34.5322 11.7674 34.4051 11.873 34.3155 12.0127C34.226 12.1488 34.1813 12.3009 34.1813 12.4692C34.1813 12.7271 34.278 12.9419 34.4713 13.1138C34.6683 13.2856 34.9547 13.3716 35.3307 13.3716C35.7031 13.3716 36.0343 13.291 36.3243 13.1299C36.6144 12.9652 36.8274 12.7414 36.9635 12.4585C37.0673 12.2401 37.1193 11.9178 37.1193 11.4917V11.1372ZM39.28 12.2974L40.236 12.147C40.2898 12.5301 40.4384 12.8237 40.6818 13.0278C40.9289 13.2319 41.2727 13.334 41.7131 13.334C42.1571 13.334 42.4865 13.2445 42.7014 13.0654C42.9162 12.8828 43.0236 12.6698 43.0236 12.4263C43.0236 12.2078 42.9288 12.036 42.739 11.9106C42.6065 11.8247 42.2771 11.7155 41.7507 11.583C41.0417 11.404 40.5494 11.25 40.2736 11.1211C40.0015 10.9886 39.7938 10.8078 39.6506 10.5786C39.5109 10.3459 39.4411 10.0898 39.4411 9.81055C39.4411 9.55632 39.4984 9.32178 39.613 9.10693C39.7312 8.88851 39.8905 8.70768 40.091 8.56445C40.2414 8.45345 40.4455 8.36035 40.7033 8.28516C40.9647 8.20638 41.244 8.16699 41.5412 8.16699C41.9888 8.16699 42.3809 8.23145 42.7175 8.36035C43.0577 8.48926 43.3083 8.66471 43.4694 8.88672C43.6306 9.10514 43.7416 9.39876 43.8024 9.76758L42.8571 9.89648C42.8142 9.60286 42.6888 9.3737 42.4812 9.20898C42.2771 9.04427 41.987 8.96191 41.611 8.96191C41.167 8.96191 40.8501 9.03532 40.6604 9.18213C40.4706 9.32894 40.3757 9.50081 40.3757 9.69775C40.3757 9.82308 40.4151 9.93587 40.4939 10.0361C40.5726 10.14 40.6962 10.2259 40.8645 10.2939C40.9611 10.3298 41.2458 10.4121 41.7185 10.541C42.4024 10.7236 42.8786 10.874 43.1472 10.9922C43.4193 11.1068 43.6324 11.2751 43.7863 11.4971C43.9403 11.7191 44.0173 11.9948 44.0173 12.3242C44.0173 12.6465 43.9224 12.9508 43.7326 13.2373C43.5464 13.5202 43.2761 13.7404 42.9216 13.8979C42.5671 14.0519 42.1661 14.1289 41.7185 14.1289C40.9773 14.1289 40.4115 13.9749 40.0212 13.667C39.6345 13.359 39.3874 12.9025 39.28 12.2974ZM48.9549 11.9106L49.9056 12.0342C49.8017 12.6895 49.535 13.2033 49.1053 13.5757C48.6792 13.9445 48.1546 14.1289 47.5315 14.1289C46.7509 14.1289 46.1225 13.8747 45.6463 13.3662C45.1736 12.8542 44.9373 12.1219 44.9373 11.1694C44.9373 10.5535 45.0393 10.0146 45.2434 9.55273C45.4475 9.09082 45.7573 8.74528 46.1726 8.51611C46.5916 8.28337 47.0463 8.16699 47.5369 8.16699C48.1564 8.16699 48.663 8.32454 49.0569 8.63965C49.4508 8.95117 49.7032 9.39518 49.8142 9.97168L48.8743 10.1167C48.7848 9.73356 48.6254 9.44531 48.3963 9.25195C48.1707 9.05859 47.8968 8.96191 47.5745 8.96191C47.0875 8.96191 46.6919 9.13737 46.3875 9.48828C46.0831 9.83561 45.9309 10.387 45.9309 11.1426C45.9309 11.9089 46.0778 12.4657 46.3714 12.813C46.665 13.1603 47.0481 13.334 47.5208 13.334C47.9003 13.334 48.2172 13.2176 48.4715 12.9849C48.7257 12.7521 48.8868 12.394 48.9549 11.9106ZM50.788 14V8.2959H51.6581V9.16064C51.8801 8.75602 52.0842 8.48926 52.2704 8.36035C52.4602 8.23145 52.6678 8.16699 52.8934 8.16699C53.2193 8.16699 53.5505 8.27083 53.8871 8.47852L53.5541 9.37549C53.3177 9.23584 53.0814 9.16602 52.8451 9.16602C52.6338 9.16602 52.4441 9.23047 52.2758 9.35938C52.1075 9.4847 51.9875 9.66016 51.9159 9.88574C51.8085 10.2295 51.7548 10.6055 51.7548 11.0137V14H50.788ZM54.5332 7.23779V6.12598H55.5V7.23779H54.5332ZM54.5332 14V8.2959H55.5V14H54.5332ZM57.043 16.186V8.2959H57.9239V9.03711C58.1316 8.74707 58.3661 8.53044 58.6275 8.38721C58.8889 8.2404 59.2058 8.16699 59.5782 8.16699C60.0651 8.16699 60.4948 8.29232 60.8672 8.54297C61.2396 8.79362 61.5207 9.14811 61.7105 9.60645C61.9003 10.0612 61.9952 10.5607 61.9952 11.105C61.9952 11.6886 61.8895 12.215 61.6783 12.6841C61.4706 13.1496 61.1662 13.5076 60.7652 13.7583C60.3677 14.0054 59.9488 14.1289 59.5083 14.1289C59.1861 14.1289 58.896 14.0609 58.6382 13.9248C58.384 13.7887 58.1745 13.6169 58.0098 13.4092V16.186H57.043ZM57.9185 11.1802C57.9185 11.9142 58.0671 12.4567 58.3643 12.8076C58.6615 13.1585 59.0214 13.334 59.4439 13.334C59.8736 13.334 60.2406 13.1532 60.545 12.7915C60.8529 12.4263 61.0069 11.8623 61.0069 11.0996C61.0069 10.3727 60.8565 9.82845 60.5557 9.4668C60.2585 9.10514 59.9022 8.92432 59.4869 8.92432C59.0751 8.92432 58.7098 9.11768 58.3912 9.50439C58.0761 9.88753 57.9185 10.4461 57.9185 11.1802ZM65.3429 13.1353L65.4825 13.9893C65.2104 14.0465 64.9669 14.0752 64.7521 14.0752C64.4012 14.0752 64.129 14.0197 63.9357 13.9087C63.7423 13.7977 63.6062 13.6527 63.5275 13.4736C63.4487 13.291 63.4093 12.9097 63.4093 12.3296V9.04785H62.7003V8.2959H63.4093V6.8833L64.3707 6.30322V8.2959H65.3429V9.04785H64.3707V12.3833C64.3707 12.659 64.3868 12.8363 64.4191 12.915C64.4549 12.9938 64.5104 13.0565 64.5856 13.103C64.6644 13.1496 64.7754 13.1729 64.9186 13.1729C65.026 13.1729 65.1674 13.1603 65.3429 13.1353Z" fill="white" fill-opacity="0.7"/>
<defs>
<clipPath id="clip0_2079_1931">
<rect width="10" height="10" fill="white" transform="translate(0 6)"/>
</clipPath>
</defs>
</svg>
