<svg width="61" height="13" viewBox="0 0 61 13" fill="none" xmlns="http://www.w3.org/2000/svg">
<g clip-path="url(#clip0_2079_1852)">
<path d="M5.96816 7.08268C6.56758 7.08268 7.05351 6.59676 7.05351 5.99734C7.05351 5.39791 6.56758 4.91199 5.96816 4.91199C5.36874 4.91199 4.88281 5.39791 4.88281 5.99734C4.88281 6.59676 5.36874 7.08268 5.96816 7.08268Z" fill="white" fill-opacity="0.7"/>
<path d="M5.96971 8.43924C8.96681 8.43924 11.3964 7.34591 11.3964 5.99721C11.3964 4.64851 8.96681 3.55518 5.96971 3.55518C2.9726 3.55518 0.542969 4.64851 0.542969 5.99721C0.542969 7.34591 2.9726 8.43924 5.96971 8.43924Z" stroke="white" stroke-opacity="0.7" stroke-width="0.542674"/>
<path d="M3.85474 7.21826C5.35329 9.81383 7.51496 11.3713 8.68297 10.6969C9.85098 10.0226 9.58302 7.3718 8.08446 4.77623C6.58591 2.18066 4.42424 0.623206 3.25623 1.29755C2.08823 1.9719 2.35619 4.6227 3.85474 7.21826Z" stroke="white" stroke-opacity="0.7" stroke-width="0.542674"/>
<path d="M3.85378 4.77622C2.35523 7.37179 2.08727 10.0226 3.25527 10.6969C4.42328 11.3713 6.58495 9.81382 8.08351 7.21825C9.58206 4.62268 9.85002 1.97189 8.68201 1.29754C7.51401 0.62319 5.35233 2.18065 3.85378 4.77622Z" stroke="white" stroke-opacity="0.7" stroke-width="0.542674"/>
</g>
<path d="M17.9141 10V1.27273H21.0249C21.7011 1.27273 22.2621 1.3892 22.7082 1.62216C23.157 1.85511 23.4922 2.17756 23.7138 2.58949C23.9354 2.99858 24.0462 3.47159 24.0462 4.00852C24.0462 4.54261 23.934 5.01278 23.7096 5.41903C23.488 5.82244 23.1528 6.13636 22.7039 6.3608C22.2579 6.58523 21.6968 6.69744 21.0207 6.69744H18.6641V5.56392H20.9013C21.3275 5.56392 21.6741 5.50284 21.9411 5.38068C22.211 5.25852 22.4084 5.08097 22.5334 4.84801C22.6584 4.61506 22.7209 4.33523 22.7209 4.00852C22.7209 3.67898 22.657 3.39347 22.5292 3.15199C22.4042 2.91051 22.2067 2.72585 21.9368 2.59801C21.6698 2.46733 21.3189 2.40199 20.8843 2.40199H19.2309V10H17.9141ZM22.2224 6.0625L24.3786 10H22.8786L20.765 6.0625H22.2224ZM28.3572 10.1321C27.7123 10.1321 27.1569 9.99432 26.691 9.71875C26.228 9.44034 25.87 9.04972 25.6172 8.54688C25.3672 8.04119 25.2422 7.44886 25.2422 6.76989C25.2422 6.09943 25.3672 5.50852 25.6172 4.99716C25.87 4.4858 26.2223 4.08665 26.674 3.79972C27.1285 3.51278 27.6598 3.36932 28.2677 3.36932C28.637 3.36932 28.995 3.4304 29.3416 3.55256C29.6882 3.67472 29.9993 3.86648 30.2748 4.12784C30.5504 4.3892 30.7677 4.72869 30.9268 5.14631C31.0859 5.56108 31.1655 6.06534 31.1655 6.65909V7.1108H25.9623V6.15625H29.9169C29.9169 5.82102 29.8487 5.52415 29.7123 5.26562C29.576 5.00426 29.3842 4.7983 29.137 4.64773C28.8927 4.49716 28.6058 4.42188 28.2762 4.42188C27.9183 4.42188 27.6058 4.50994 27.3387 4.68608C27.0745 4.85937 26.87 5.08665 26.7251 5.3679C26.5831 5.64631 26.512 5.94886 26.512 6.27557V7.02131C26.512 7.45881 26.5887 7.83097 26.7422 8.13778C26.8984 8.4446 27.1157 8.67898 27.3941 8.84091C27.6726 9 27.9978 9.07955 28.37 9.07955C28.6115 9.07955 28.8316 9.04545 29.0305 8.97727C29.2294 8.90625 29.4012 8.80114 29.5461 8.66193C29.691 8.52273 29.8018 8.35085 29.8785 8.14631L31.0845 8.36364C30.9879 8.71875 30.8146 9.02983 30.5646 9.29688C30.3174 9.56108 30.0064 9.76705 29.6314 9.91477C29.2592 10.0597 28.8345 10.1321 28.3572 10.1321ZM34.556 10.1449C34.1412 10.1449 33.7662 10.0682 33.431 9.91477C33.0958 9.75852 32.8301 9.53267 32.6341 9.23722C32.4409 8.94176 32.3443 8.57955 32.3443 8.15057C32.3443 7.78125 32.4154 7.47727 32.5574 7.23864C32.6995 7 32.8912 6.81108 33.1327 6.67188C33.3742 6.53267 33.6441 6.42756 33.9424 6.35653C34.2406 6.28551 34.5446 6.23153 34.8543 6.1946C35.2463 6.14915 35.5645 6.11222 35.8088 6.08381C36.0531 6.05256 36.2307 6.00284 36.3415 5.93466C36.4523 5.86648 36.5077 5.75568 36.5077 5.60227V5.57244C36.5077 5.20028 36.4026 4.91193 36.1924 4.70739C35.985 4.50284 35.6753 4.40057 35.2634 4.40057C34.8344 4.40057 34.4963 4.49574 34.2492 4.68608C34.0049 4.87358 33.8358 5.08239 33.7421 5.3125L32.5446 5.03977C32.6867 4.64205 32.8941 4.32102 33.1668 4.0767C33.4424 3.82955 33.7591 3.65057 34.1171 3.53977C34.475 3.42614 34.8514 3.36932 35.2463 3.36932C35.5077 3.36932 35.7847 3.40057 36.0773 3.46307C36.3728 3.52273 36.6483 3.63352 36.904 3.79545C37.1625 3.95739 37.3742 4.18892 37.5389 4.49006C37.7037 4.78835 37.7861 5.17614 37.7861 5.65341V10H36.5418V9.10511H36.4906C36.4083 9.26989 36.2847 9.43182 36.1199 9.59091C35.9551 9.75 35.7435 9.8821 35.485 9.98722C35.2264 10.0923 34.9168 10.1449 34.556 10.1449ZM34.833 9.12216C35.1853 9.12216 35.4864 9.05256 35.7364 8.91335C35.9892 8.77415 36.181 8.59233 36.3117 8.3679C36.4452 8.14062 36.512 7.89773 36.512 7.6392V6.79545C36.4665 6.84091 36.3784 6.88352 36.2478 6.9233C36.1199 6.96023 35.9736 6.9929 35.8088 7.02131C35.6441 7.04687 35.4835 7.07102 35.3273 7.09375C35.171 7.11364 35.0404 7.13068 34.9353 7.14489C34.6881 7.17614 34.4622 7.22869 34.2577 7.30256C34.056 7.37642 33.8941 7.48295 33.7719 7.62216C33.6526 7.75852 33.5929 7.94034 33.5929 8.16761C33.5929 8.48295 33.7094 8.72159 33.9424 8.88352C34.1753 9.04261 34.4722 9.12216 34.833 9.12216ZM42.3123 10.1321C41.6788 10.1321 41.1333 9.98864 40.6759 9.7017C40.2214 9.41193 39.872 9.01278 39.6276 8.50426C39.3833 7.99574 39.2612 7.41335 39.2612 6.7571C39.2612 6.09233 39.3862 5.50568 39.6362 4.99716C39.8862 4.4858 40.2384 4.08665 40.693 3.79972C41.1475 3.51278 41.683 3.36932 42.2995 3.36932C42.7967 3.36932 43.2398 3.46165 43.6291 3.64631C44.0183 3.82812 44.3322 4.08381 44.5708 4.41335C44.8123 4.7429 44.9558 5.12784 45.0012 5.56818H43.7612C43.693 5.26136 43.5367 4.99716 43.2924 4.77557C43.0509 4.55398 42.7271 4.44318 42.3208 4.44318C41.9657 4.44318 41.6546 4.53693 41.3876 4.72443C41.1234 4.90909 40.9174 5.1733 40.7697 5.51705C40.622 5.85795 40.5481 6.26136 40.5481 6.72727C40.5481 7.20455 40.6205 7.61648 40.7654 7.96307C40.9103 8.30966 41.1148 8.57812 41.3791 8.76847C41.6461 8.95881 41.96 9.05398 42.3208 9.05398C42.5623 9.05398 42.781 9.00994 42.9771 8.92188C43.1759 8.83097 43.3421 8.7017 43.4756 8.53409C43.612 8.36648 43.7072 8.16477 43.7612 7.92898H45.0012C44.9558 8.35227 44.818 8.73011 44.5879 9.0625C44.3577 9.39489 44.0495 9.65625 43.6631 9.84659C43.2796 10.0369 42.8293 10.1321 42.3123 10.1321ZM49.4912 3.45455V4.47727H45.9159V3.45455H49.4912ZM46.8747 1.88636H48.1489V8.07812C48.1489 8.32528 48.1858 8.51136 48.2596 8.63636C48.3335 8.75852 48.4287 8.84233 48.5452 8.88778C48.6645 8.9304 48.7937 8.9517 48.9329 8.9517C49.0352 8.9517 49.1247 8.9446 49.2014 8.9304C49.2781 8.91619 49.3378 8.90483 49.3804 8.89631L49.6105 9.94886C49.5366 9.97727 49.4315 10.0057 49.2952 10.0341C49.1588 10.0653 48.9883 10.0824 48.7838 10.0852C48.4486 10.0909 48.1361 10.0312 47.8463 9.90625C47.5565 9.78125 47.3221 9.58807 47.1432 9.3267C46.9642 9.06534 46.8747 8.73722 46.8747 8.34233V1.88636ZM51.5294 10.0675C51.3353 10.0675 51.1684 9.99882 51.0287 9.86151C50.8891 9.72183 50.8192 9.55374 50.8192 9.35724C50.8192 9.16312 50.8891 8.9974 51.0287 8.86009C51.1684 8.72041 51.3353 8.65057 51.5294 8.65057C51.7236 8.65057 51.8905 8.72041 52.0302 8.86009C52.1698 8.9974 52.2397 9.16312 52.2397 9.35724C52.2397 9.48745 52.2065 9.60701 52.1402 9.71591C52.0763 9.82244 51.9911 9.90767 51.8846 9.97159C51.778 10.0355 51.6597 10.0675 51.5294 10.0675ZM53.7219 4.54545H54.7837V10.3551C54.7837 10.7197 54.7174 11.0275 54.5848 11.2784C54.4546 11.5294 54.2605 11.7199 54.0024 11.8501C53.7468 11.9804 53.4307 12.0455 53.0543 12.0455C53.0164 12.0455 52.9809 12.0455 52.9478 12.0455C52.9122 12.0455 52.8755 12.0443 52.8377 12.0419V11.1293C52.8708 11.1293 52.9004 11.1293 52.9264 11.1293C52.9501 11.1293 52.9773 11.1293 53.0081 11.1293C53.2591 11.1293 53.4402 11.0618 53.5514 10.9268C53.6651 10.7943 53.7219 10.6013 53.7219 10.348V4.54545ZM54.2475 3.70384C54.0628 3.70384 53.9042 3.64228 53.7716 3.51918C53.6414 3.3937 53.5763 3.24455 53.5763 3.07173C53.5763 2.89654 53.6414 2.7474 53.7716 2.62429C53.9042 2.49882 54.0628 2.43608 54.2475 2.43608C54.4321 2.43608 54.5896 2.49882 54.7198 2.62429C54.8523 2.7474 54.9186 2.89654 54.9186 3.07173C54.9186 3.24455 54.8523 3.3937 54.7198 3.51918C54.5896 3.64228 54.4321 3.70384 54.2475 3.70384ZM60.3595 5.87713L59.3971 6.04759C59.3569 5.92448 59.293 5.80729 59.2054 5.69602C59.1201 5.58475 59.0041 5.49361 58.8574 5.42259C58.7106 5.35156 58.5271 5.31605 58.3069 5.31605C58.0063 5.31605 57.7553 5.38352 57.5541 5.51847C57.3529 5.65104 57.2522 5.82268 57.2522 6.03338C57.2522 6.21567 57.3197 6.36245 57.4547 6.47372C57.5896 6.58499 57.8074 6.67614 58.1081 6.74716L58.9746 6.94602C59.4764 7.06203 59.8505 7.24077 60.0967 7.48224C60.3429 7.72372 60.466 8.03741 60.466 8.4233C60.466 8.75 60.3713 9.04119 60.1819 9.29688C59.9949 9.55019 59.7333 9.74905 59.3971 9.89347C59.0633 10.0379 58.6763 10.1101 58.2359 10.1101C57.6251 10.1101 57.1268 9.97988 56.7409 9.71946C56.355 9.45668 56.1183 9.08381 56.0307 8.60085L57.0569 8.4446C57.1209 8.71212 57.2522 8.91454 57.4511 9.05185C57.65 9.18679 57.9092 9.25426 58.2288 9.25426C58.5768 9.25426 58.855 9.18205 59.0633 9.03764C59.2717 8.89086 59.3758 8.71212 59.3758 8.50142C59.3758 8.33097 59.3119 8.18774 59.1841 8.07173C59.0586 7.95573 58.8656 7.86813 58.6052 7.80895L57.6819 7.60653C57.1729 7.49053 56.7965 7.30587 56.5527 7.05256C56.3112 6.79924 56.1905 6.47846 56.1905 6.0902C56.1905 5.76823 56.2804 5.48651 56.4603 5.24503C56.6403 5.00355 56.8888 4.81534 57.2061 4.6804C57.5233 4.54309 57.8867 4.47443 58.2963 4.47443C58.8858 4.47443 59.3498 4.60227 59.6883 4.85795C60.0269 5.11127 60.2506 5.45099 60.3595 5.87713Z" fill="white" fill-opacity="0.7"/>
<defs>
<clipPath id="clip0_2079_1852">
<rect width="11.9388" height="11" fill="white" transform="translate(0 0.5)"/>
</clipPath>
</defs>
</svg>
