<svg width="18" height="18" viewBox="0 0 18 18" fill="none" xmlns="http://www.w3.org/2000/svg">
<path d="M8.17586 1.57498C4.72586 1.94998 1.95086 4.72498 1.57586 8.09998C1.20086 11.625 3.22586 14.775 6.30086 15.975C6.52586 16.05 6.75086 15.9 6.75086 15.6V14.4C6.75086 14.4 6.45086 14.475 6.07586 14.475C5.02586 14.475 4.57586 13.575 4.50086 13.05C4.42586 12.75 4.27586 12.525 4.05086 12.3C3.82586 12.225 3.75086 12.225 3.75086 12.15C3.75086 12 3.97586 12 4.05086 12C4.50086 12 4.87586 12.525 5.02586 12.75C5.40086 13.35 5.85086 13.5 6.07586 13.5C6.37586 13.5 6.60086 13.425 6.75086 13.35C6.82586 12.825 7.05086 12.3 7.50086 12C5.77586 11.625 4.50086 10.65 4.50086 8.99998C4.50086 8.17498 4.87586 7.34998 5.40086 6.74998C5.32586 6.59998 5.25086 6.22498 5.25086 5.69998C5.25086 5.39998 5.25086 4.94998 5.47586 4.49998C5.47586 4.49998 6.52586 4.49998 7.57586 5.47498C7.95086 5.32498 8.47586 5.24998 9.00086 5.24998C9.52586 5.24998 10.0509 5.32498 10.5009 5.47498C11.4759 4.49998 12.6009 4.49998 12.6009 4.49998C12.7509 4.94998 12.7509 5.39998 12.7509 5.69998C12.7509 6.29998 12.6759 6.59998 12.6009 6.74998C13.1259 7.34998 13.5009 8.09998 13.5009 8.99998C13.5009 10.65 12.2259 11.625 10.5009 12C10.9509 12.375 11.2509 13.05 11.2509 13.725V15.675C11.2509 15.9 11.4759 16.125 11.7759 16.05C14.5509 14.925 16.5009 12.225 16.5009 9.07498C16.5009 4.57498 12.6759 1.04998 8.17586 1.57498Z" fill="white"/>
</svg>
