<svg width="24" height="24" viewBox="0 0 24 24" fill="none" xmlns="http://www.w3.org/2000/svg">
<rect x="0.5" y="0.5" width="23" height="23" rx="11.5" stroke="white" stroke-opacity="0.7"/>
<path d="M15.7778 6H7.22222C6.54694 6 6 6.54694 6 7.22222V15.7778C6 16.4531 6.54694 17 7.22222 17H15.7778C16.4531 17 17 16.4531 17 15.7778V7.22222C17 6.54694 16.4531 6 15.7778 6ZM9.66667 14.5556H8.12483V10.2778H9.66667V14.5556ZM8.86856 9.49372C8.39739 9.49372 8.08267 9.17961 8.08267 8.76039C8.08267 8.34117 8.39678 8.02706 8.9205 8.02706C9.39167 8.02706 9.70639 8.34117 9.70639 8.76039C9.70639 9.17961 9.39228 9.49372 8.86856 9.49372ZM15.1667 14.5556H13.6743V12.2174C13.6743 11.5709 13.2765 11.4218 13.1274 11.4218C12.9783 11.4218 12.4808 11.5214 12.4808 12.2174C12.4808 12.3171 12.4808 14.5556 12.4808 14.5556H10.939V10.2778H12.4808V10.8748C12.6794 10.5265 13.0773 10.2778 13.8234 10.2778C14.5696 10.2778 15.1667 10.8748 15.1667 12.2174V14.5556Z" fill="white" fill-opacity="0.7"/>
</svg>
