<svg width="36" height="36" viewBox="0 0 36 36" fill="none" xmlns="http://www.w3.org/2000/svg">
<g clip-path="url(#clip0_2150_2254)">
<path d="M29.955 9.645L18 3L6.045 9.645L13.65 13.86C14.745 12.72 16.29 12 18 12C19.71 12 21.255 12.72 22.35 13.86L29.955 9.645ZM15 18C15 16.35 16.35 15 18 15C19.65 15 21 16.35 21 18C21 19.65 19.65 21 18 21C16.35 21 15 19.65 15 18ZM16.5 32.16L4.5 25.5V12.21L12.195 16.485C12.06 16.965 12 17.475 12 18C12 20.79 13.905 23.145 16.5 23.805V32.16ZM19.5 32.16V23.805C22.095 23.145 24 20.79 24 18C24 17.475 23.94 16.965 23.805 16.485L31.5 12.21V25.5L19.5 32.16Z" fill="#2AA874"/>
</g>
<defs>
<clipPath id="clip0_2150_2254">
<rect width="36" height="36" fill="white"/>
</clipPath>
</defs>
</svg>
