<svg width="46" height="11" viewBox="0 0 46 11" fill="none" xmlns="http://www.w3.org/2000/svg">
<path d="M0.587058 0.145999H5.86706V0.563999H1.07106V3.71H5.58106V4.128H1.07106V7.582H5.92206V8H0.587058V0.145999ZM8.27133 5.03L6.20333 2.346H6.78633L8.55733 4.711L10.3393 2.346H10.8783L8.83233 5.03L11.0653 8H10.4933L8.55733 5.349L6.57733 8H6.04933L8.27133 5.03ZM12.202 3.644H12.224C12.268 3.50467 12.3414 3.35067 12.444 3.182C12.5467 3.01333 12.6824 2.85933 12.851 2.72C13.0197 2.57333 13.2214 2.45233 13.456 2.357C13.698 2.26167 13.973 2.214 14.281 2.214C14.7137 2.214 15.0877 2.29467 15.403 2.456C15.7257 2.61733 15.9897 2.83367 16.195 3.105C16.4077 3.37633 16.5654 3.69167 16.668 4.051C16.7707 4.41033 16.822 4.788 16.822 5.184C16.822 5.61667 16.7707 6.01267 16.668 6.372C16.5654 6.73133 16.4077 7.043 16.195 7.307C15.9897 7.56367 15.7257 7.76533 15.403 7.912C15.0877 8.05867 14.7137 8.132 14.281 8.132C13.8117 8.132 13.3937 8.02933 13.027 7.824C12.6604 7.61867 12.3927 7.285 12.224 6.823H12.202V10.024H11.784V2.346H12.202V3.644ZM14.281 7.769C14.6477 7.769 14.963 7.69933 15.227 7.56C15.4984 7.42067 15.7184 7.23367 15.887 6.999C16.063 6.76433 16.1914 6.493 16.272 6.185C16.36 5.86967 16.404 5.536 16.404 5.184C16.404 4.86133 16.3637 4.546 16.283 4.238C16.2024 3.92267 16.0777 3.644 15.909 3.402C15.7404 3.15267 15.5204 2.95467 15.249 2.808C14.985 2.654 14.6624 2.577 14.281 2.577C13.907 2.577 13.588 2.65033 13.324 2.797C13.06 2.94367 12.8437 3.138 12.675 3.38C12.5137 3.622 12.3964 3.90067 12.323 4.216C12.2497 4.524 12.213 4.84667 12.213 5.184C12.213 5.52133 12.246 5.84767 12.312 6.163C12.378 6.471 12.488 6.746 12.642 6.988C12.8034 7.22267 13.016 7.41333 13.28 7.56C13.5514 7.69933 13.885 7.769 14.281 7.769ZM18.2813 3.6H18.3143C18.3657 3.41667 18.4573 3.24433 18.5893 3.083C18.7287 2.92167 18.8937 2.78233 19.0843 2.665C19.2823 2.54767 19.4987 2.45967 19.7333 2.401C19.9753 2.335 20.2247 2.30567 20.4813 2.313V2.731C20.2613 2.70167 20.0083 2.72367 19.7223 2.797C19.4437 2.87033 19.176 3.03167 18.9193 3.281C18.8167 3.391 18.725 3.49733 18.6443 3.6C18.571 3.70267 18.5087 3.81633 18.4573 3.941C18.406 4.06567 18.3657 4.205 18.3363 4.359C18.307 4.513 18.2887 4.69633 18.2813 4.909V8H17.8633V2.346H18.2813V3.6ZM21.0269 5.228V5.294C21.0269 5.624 21.0709 5.93933 21.1589 6.24C21.2469 6.54067 21.3753 6.80467 21.5439 7.032C21.7199 7.25933 21.9363 7.439 22.1929 7.571C22.4569 7.703 22.7613 7.769 23.1059 7.769C23.6706 7.769 24.1179 7.62233 24.4479 7.329C24.7779 7.02833 25.0053 6.614 25.1299 6.086H25.5479C25.4233 6.746 25.1519 7.252 24.7339 7.604C24.3233 7.956 23.7769 8.132 23.0949 8.132C22.6769 8.132 22.3103 8.05867 21.9949 7.912C21.6869 7.758 21.4266 7.55267 21.2139 7.296C21.0086 7.032 20.8546 6.724 20.7519 6.372C20.6493 6.01267 20.5979 5.62767 20.5979 5.217C20.5979 4.821 20.6493 4.44333 20.7519 4.084C20.8619 3.71733 21.0233 3.39833 21.2359 3.127C21.4486 2.84833 21.7126 2.62833 22.0279 2.467C22.3506 2.29833 22.7283 2.214 23.1609 2.214C23.5569 2.214 23.9053 2.28733 24.2059 2.434C24.5139 2.58067 24.7706 2.78233 24.9759 3.039C25.1813 3.28833 25.3353 3.58167 25.4379 3.919C25.5479 4.249 25.6029 4.60467 25.6029 4.986C25.6029 5.02267 25.5993 5.06667 25.5919 5.118C25.5919 5.162 25.5919 5.19867 25.5919 5.228H21.0269ZM25.1739 4.865C25.1593 4.557 25.1079 4.26733 25.0199 3.996C24.9319 3.71733 24.7999 3.47533 24.6239 3.27C24.4553 3.05733 24.2463 2.88867 23.9969 2.764C23.7549 2.63933 23.4763 2.577 23.1609 2.577C22.8236 2.577 22.5266 2.643 22.2699 2.775C22.0133 2.89967 21.7969 3.06833 21.6209 3.281C21.4449 3.48633 21.3093 3.72833 21.2139 4.007C21.1186 4.28567 21.0599 4.57167 21.0379 4.865H25.1739ZM26.8301 6.119C26.8447 6.383 26.9034 6.61767 27.0061 6.823C27.1087 7.021 27.2407 7.19333 27.4021 7.34C27.5707 7.47933 27.7651 7.58567 27.9851 7.659C28.2051 7.73233 28.4434 7.769 28.7001 7.769C28.8834 7.769 29.0777 7.75433 29.2831 7.725C29.4957 7.68833 29.6901 7.626 29.8661 7.538C30.0494 7.45 30.1997 7.329 30.3171 7.175C30.4344 7.01367 30.4931 6.812 30.4931 6.57C30.4931 6.25467 30.3977 6.01633 30.2071 5.855C30.0164 5.69367 29.7744 5.569 29.4811 5.481C29.1951 5.393 28.8834 5.32333 28.5461 5.272C28.2161 5.21333 27.9044 5.129 27.6111 5.019C27.3251 4.909 27.0867 4.755 26.8961 4.557C26.7054 4.35167 26.6101 4.05467 26.6101 3.666C26.6101 3.38733 26.6724 3.15633 26.7971 2.973C26.9217 2.78233 27.0794 2.632 27.2701 2.522C27.4681 2.412 27.6881 2.335 27.9301 2.291C28.1721 2.23967 28.4141 2.214 28.6561 2.214C28.9494 2.214 29.2244 2.247 29.4811 2.313C29.7377 2.379 29.9577 2.48533 30.1411 2.632C30.3317 2.77867 30.4784 2.96567 30.5811 3.193C30.6911 3.42033 30.7461 3.69533 30.7461 4.018H30.3281C30.3281 3.76133 30.2841 3.54133 30.1961 3.358C30.1154 3.17467 29.9981 3.028 29.8441 2.918C29.6974 2.80067 29.5214 2.71633 29.3161 2.665C29.1107 2.60633 28.8907 2.577 28.6561 2.577C28.4654 2.577 28.2711 2.59533 28.0731 2.632C27.8824 2.66867 27.7101 2.731 27.5561 2.819C27.4021 2.907 27.2737 3.02067 27.1711 3.16C27.0757 3.29933 27.0281 3.468 27.0281 3.666C27.0281 3.89333 27.0831 4.07667 27.1931 4.216C27.3031 4.35533 27.4461 4.469 27.6221 4.557C27.8054 4.63767 28.0071 4.70367 28.2271 4.755C28.4544 4.80633 28.6817 4.85767 28.9091 4.909C29.1877 4.96033 29.4481 5.02267 29.6901 5.096C29.9394 5.162 30.1521 5.25733 30.3281 5.382C30.5114 5.49933 30.6544 5.65333 30.7571 5.844C30.8597 6.03467 30.9111 6.27667 30.9111 6.57C30.9111 6.878 30.8414 7.131 30.7021 7.329C30.5627 7.527 30.3867 7.68833 30.1741 7.813C29.9614 7.93033 29.7231 8.011 29.4591 8.055C29.2024 8.10633 28.9494 8.132 28.7001 8.132C28.3774 8.132 28.0767 8.088 27.7981 8C27.5267 7.91933 27.2884 7.79467 27.0831 7.626C26.8777 7.45 26.7164 7.23733 26.5991 6.988C26.4817 6.73867 26.4194 6.449 26.4121 6.119H26.8301ZM32.1919 6.119C32.2066 6.383 32.2653 6.61767 32.3679 6.823C32.4706 7.021 32.6026 7.19333 32.7639 7.34C32.9326 7.47933 33.1269 7.58567 33.3469 7.659C33.5669 7.73233 33.8053 7.769 34.0619 7.769C34.2453 7.769 34.4396 7.75433 34.6449 7.725C34.8576 7.68833 35.0519 7.626 35.2279 7.538C35.4113 7.45 35.5616 7.329 35.6789 7.175C35.7963 7.01367 35.8549 6.812 35.8549 6.57C35.8549 6.25467 35.7596 6.01633 35.5689 5.855C35.3783 5.69367 35.1363 5.569 34.8429 5.481C34.5569 5.393 34.2453 5.32333 33.9079 5.272C33.5779 5.21333 33.2663 5.129 32.9729 5.019C32.6869 4.909 32.4486 4.755 32.2579 4.557C32.0673 4.35167 31.9719 4.05467 31.9719 3.666C31.9719 3.38733 32.0343 3.15633 32.1589 2.973C32.2836 2.78233 32.4413 2.632 32.6319 2.522C32.8299 2.412 33.0499 2.335 33.2919 2.291C33.5339 2.23967 33.7759 2.214 34.0179 2.214C34.3113 2.214 34.5863 2.247 34.8429 2.313C35.0996 2.379 35.3196 2.48533 35.5029 2.632C35.6936 2.77867 35.8403 2.96567 35.9429 3.193C36.0529 3.42033 36.1079 3.69533 36.1079 4.018H35.6899C35.6899 3.76133 35.6459 3.54133 35.5579 3.358C35.4773 3.17467 35.3599 3.028 35.2059 2.918C35.0593 2.80067 34.8833 2.71633 34.6779 2.665C34.4726 2.60633 34.2526 2.577 34.0179 2.577C33.8273 2.577 33.6329 2.59533 33.4349 2.632C33.2443 2.66867 33.0719 2.731 32.9179 2.819C32.7639 2.907 32.6356 3.02067 32.5329 3.16C32.4376 3.29933 32.3899 3.468 32.3899 3.666C32.3899 3.89333 32.4449 4.07667 32.5549 4.216C32.6649 4.35533 32.8079 4.469 32.9839 4.557C33.1673 4.63767 33.3689 4.70367 33.5889 4.755C33.8163 4.80633 34.0436 4.85767 34.2709 4.909C34.5496 4.96033 34.8099 5.02267 35.0519 5.096C35.3013 5.162 35.5139 5.25733 35.6899 5.382C35.8733 5.49933 36.0163 5.65333 36.1189 5.844C36.2216 6.03467 36.2729 6.27667 36.2729 6.57C36.2729 6.878 36.2033 7.131 36.0639 7.329C35.9246 7.527 35.7486 7.68833 35.5359 7.813C35.3233 7.93033 35.0849 8.011 34.8209 8.055C34.5643 8.10633 34.3113 8.132 34.0619 8.132C33.7393 8.132 33.4386 8.088 33.1599 8C32.8886 7.91933 32.6503 7.79467 32.4449 7.626C32.2396 7.45 32.0783 7.23733 31.9609 6.988C31.8436 6.73867 31.7813 6.449 31.7739 6.119H32.1919ZM37.8698 6.97H38.3798V8H37.8698V6.97ZM40.233 1.89V0.86H40.613V1.89H40.233ZM40.613 2.86V8.55C40.613 8.72333 40.5997 8.88667 40.573 9.04C40.5464 9.2 40.493 9.33667 40.413 9.45C40.3397 9.57 40.233 9.66333 40.093 9.73C39.9597 9.80333 39.783 9.84 39.563 9.84H39.403C39.3764 9.84 39.3497 9.84 39.323 9.84C39.2964 9.84 39.2697 9.83667 39.243 9.83V9.5C39.2764 9.50667 39.313 9.51 39.353 9.51C39.393 9.51667 39.4397 9.52 39.493 9.52C39.6264 9.52 39.7397 9.50333 39.833 9.47C39.9264 9.44333 40.003 9.39 40.063 9.31C40.123 9.23667 40.1664 9.13333 40.193 9C40.2197 8.87333 40.233 8.71333 40.233 8.52V2.86H40.613ZM42.0627 6.29C42.0761 6.53 42.1294 6.74333 42.2227 6.93C42.3161 7.11 42.4361 7.26667 42.5827 7.4C42.7361 7.52667 42.9127 7.62333 43.1127 7.69C43.3127 7.75667 43.5294 7.79 43.7627 7.79C43.9294 7.79 44.1061 7.77667 44.2927 7.75C44.4861 7.71667 44.6627 7.66 44.8227 7.58C44.9894 7.5 45.1261 7.39 45.2327 7.25C45.3394 7.10333 45.3927 6.92 45.3927 6.7C45.3927 6.41333 45.3061 6.19667 45.1327 6.05C44.9594 5.90333 44.7394 5.79 44.4727 5.71C44.2127 5.63 43.9294 5.56667 43.6227 5.52C43.3227 5.46667 43.0394 5.39 42.7727 5.29C42.5127 5.19 42.2961 5.05 42.1227 4.87C41.9494 4.68333 41.8627 4.41333 41.8627 4.06C41.8627 3.80667 41.9194 3.59667 42.0327 3.43C42.1461 3.25667 42.2894 3.12 42.4627 3.02C42.6427 2.92 42.8427 2.85 43.0627 2.81C43.2827 2.76333 43.5027 2.74 43.7227 2.74C43.9894 2.74 44.2394 2.77 44.4727 2.83C44.7061 2.89 44.9061 2.98667 45.0727 3.12C45.2461 3.25333 45.3794 3.42333 45.4727 3.63C45.5727 3.83667 45.6227 4.08667 45.6227 4.38H45.2427C45.2427 4.14667 45.2027 3.94667 45.1227 3.78C45.0494 3.61333 44.9427 3.48 44.8027 3.38C44.6694 3.27333 44.5094 3.19667 44.3227 3.15C44.1361 3.09667 43.9361 3.07 43.7227 3.07C43.5494 3.07 43.3727 3.08667 43.1927 3.12C43.0194 3.15333 42.8627 3.21 42.7227 3.29C42.5827 3.37 42.4661 3.47333 42.3727 3.6C42.2861 3.72667 42.2427 3.88 42.2427 4.06C42.2427 4.26667 42.2927 4.43333 42.3927 4.56C42.4927 4.68667 42.6227 4.79 42.7827 4.87C42.9494 4.94333 43.1327 5.00333 43.3327 5.05C43.5394 5.09667 43.7461 5.14333 43.9527 5.19C44.2061 5.23667 44.4427 5.29333 44.6627 5.36C44.8894 5.42 45.0827 5.50667 45.2427 5.62C45.4094 5.72667 45.5394 5.86667 45.6327 6.04C45.7261 6.21333 45.7727 6.43333 45.7727 6.7C45.7727 6.98 45.7094 7.21 45.5827 7.39C45.4561 7.57 45.2961 7.71667 45.1027 7.83C44.9094 7.93667 44.6927 8.01 44.4527 8.05C44.2194 8.09667 43.9894 8.12 43.7627 8.12C43.4694 8.12 43.1961 8.08 42.9427 8C42.6961 7.92667 42.4794 7.81333 42.2927 7.66C42.1061 7.5 41.9594 7.30667 41.8527 7.08C41.7461 6.85333 41.6894 6.59 41.6827 6.29H42.0627Z" fill="white"/>
</svg>
