<svg width="24" height="24" viewBox="0 0 24 24" fill="none" xmlns="http://www.w3.org/2000/svg">
<path d="M10.8985 2.09998C6.29854 2.59998 2.59854 6.29998 2.09854 10.8C1.59854 15.5 4.29854 19.7 8.39854 21.3C8.69854 21.4 8.99854 21.2 8.99854 20.8V19.2C8.99854 19.2 8.59854 19.3 8.09854 19.3C6.69854 19.3 6.09854 18.1 5.99854 17.4C5.89854 17 5.69854 16.7 5.39854 16.4C5.09854 16.3 4.99854 16.3 4.99854 16.2C4.99854 16 5.29854 16 5.39854 16C5.99854 16 6.49854 16.7 6.69854 17C7.19854 17.8 7.79854 18 8.09854 18C8.49854 18 8.79854 17.9 8.99854 17.8C9.09854 17.1 9.39854 16.4 9.99854 16C7.69854 15.5 5.99854 14.2 5.99854 12C5.99854 10.9 6.49854 9.79998 7.19854 8.99998C7.09854 8.79998 6.99854 8.29998 6.99854 7.59998C6.99854 7.19998 6.99854 6.59998 7.29854 5.99998C7.29854 5.99998 8.69855 5.99998 10.0985 7.29998C10.5985 7.09998 11.2985 6.99998 11.9985 6.99998C12.6985 6.99998 13.3985 7.09998 13.9985 7.29998C15.2985 5.99998 16.7985 5.99998 16.7985 5.99998C16.9985 6.59998 16.9985 7.19998 16.9985 7.59998C16.9985 8.39998 16.8985 8.79998 16.7985 8.99998C17.4985 9.79998 17.9985 10.8 17.9985 12C17.9985 14.2 16.2985 15.5 13.9985 16C14.5985 16.5 14.9985 17.4 14.9985 18.3V20.9C14.9985 21.2 15.2985 21.5 15.6985 21.4C19.3985 19.9 21.9985 16.3 21.9985 12.1C21.9985 6.09998 16.8985 1.39998 10.8985 2.09998Z" fill="black"/>
</svg>
