<svg width="45" height="12" viewBox="0 0 45 12" fill="none" xmlns="http://www.w3.org/2000/svg">
<g clip-path="url(#clip0_2079_1897)">
<path d="M3.80491 1.57343C3.3737 1.0602 3.00237 0.538956 2.9305 0.430697C2.92252 0.422678 2.91054 0.422678 2.90255 0.430697C2.82669 0.538956 2.45537 1.0602 2.02415 1.57343C-1.67313 6.30876 2.60709 9.50441 2.60709 9.50441L2.64302 9.52846C2.67497 10.0216 2.75482 10.7313 2.75482 10.7313H2.91453H3.07424C3.07424 10.7313 3.1541 10.0257 3.18604 9.52846L3.22197 9.5004C3.22197 9.50441 7.50219 6.30876 3.80491 1.57343ZM2.91453 9.43223C2.91453 9.43223 2.72288 9.26784 2.67097 9.18364V9.17562L2.90255 4.01928C2.90255 4.00324 2.92651 4.00324 2.92651 4.01928L3.1541 9.17562V9.18364C3.10219 9.26784 2.91453 9.43223 2.91453 9.43223Z" fill="white" fill-opacity="0.7"/>
<path d="M10.9212 8.38173L9.13643 4.00727L9.13244 3.99524H7.74696V4.28794H7.97055C8.03843 4.28794 8.10231 4.31601 8.15023 4.36412C8.19814 4.41224 8.22209 4.47639 8.22209 4.54455L8.18217 8.94709C8.18217 9.08341 8.07037 9.19568 7.93462 9.19969L7.70703 9.20771V9.4964H9.05658V9.20771L8.91683 9.2037C8.78108 9.19969 8.66928 9.08742 8.66928 8.9511V4.80117L10.6137 9.4964C10.6417 9.56456 10.7056 9.60867 10.7774 9.60867C10.8493 9.60867 10.9132 9.56456 10.9412 9.4964L12.8417 4.90542L12.8696 8.94709C12.8696 9.08742 12.7578 9.19969 12.6181 9.2037H12.4744V9.49239H14.0555V9.20771H13.8399C13.7041 9.20771 13.5923 9.09143 13.5883 8.9551L13.5764 4.55257C13.5764 4.41224 13.6882 4.29997 13.8239 4.29596L14.0555 4.29195V3.99524H12.7059L10.9212 8.38173Z" fill="white" fill-opacity="0.7"/>
<path d="M23.3525 9.12749C23.3086 9.08338 23.2846 9.02324 23.2846 8.95107V6.7899C23.2846 6.37691 23.1648 6.05614 22.9253 5.82759C22.6897 5.59905 22.3583 5.47876 21.951 5.47876C21.3761 5.47876 20.9249 5.71132 20.6095 6.17242C20.6055 6.18044 20.5935 6.18445 20.5815 6.18445C20.5695 6.18445 20.5616 6.17643 20.5616 6.1644L20.4138 5.58702H20.1623L19.5234 5.9559V6.15638H19.6871C19.763 6.15638 19.8269 6.17643 19.8708 6.21652C19.9147 6.25662 19.9387 6.31676 19.9387 6.40097V8.94706C19.9387 9.01923 19.9147 9.07937 19.8708 9.12348C19.8269 9.16758 19.767 9.19164 19.6951 9.19164H19.5354V9.48434H21.0008V9.19164H20.841C20.7692 9.19164 20.7093 9.16758 20.6654 9.12348C20.6214 9.07937 20.5975 9.01923 20.5975 8.94706V7.25902C20.5975 7.04651 20.6454 6.82999 20.7332 6.62149C20.8251 6.417 20.9608 6.24058 21.1405 6.10827C21.3202 5.97595 21.5358 5.9118 21.7873 5.9118C22.0668 5.9118 22.2784 6.00001 22.4142 6.17643C22.5459 6.35285 22.6138 6.58541 22.6138 6.85806V8.93904C22.6138 9.01121 22.5899 9.07135 22.5459 9.11546C22.502 9.15957 22.4421 9.18362 22.3703 9.18362H22.2106V9.47632H23.6759V9.18362H23.5162C23.4563 9.19966 23.4004 9.1756 23.3525 9.12749Z" fill="white" fill-opacity="0.7"/>
<path d="M36.7502 4.32403C36.3469 4.10751 35.8917 3.99524 35.4046 3.99524H33.4961V4.28794H33.6838C33.7556 4.28794 33.8195 4.31601 33.8834 4.38016C33.9433 4.4403 33.9752 4.50847 33.9752 4.58064V8.90298C33.9752 8.97515 33.9433 9.04332 33.8834 9.10346C33.8235 9.1636 33.7556 9.19568 33.6838 9.19568H33.4961V9.48838H35.4046C35.8917 9.48838 36.3469 9.37611 36.7542 9.15959C37.1614 8.94308 37.4888 8.62231 37.7284 8.21333C37.968 7.80435 38.0917 7.31117 38.0917 6.74582C38.0917 6.18448 37.968 5.69531 37.7284 5.27831C37.4848 4.86131 37.1574 4.54455 36.7502 4.32403ZM37.3211 6.7378C37.3211 7.25103 37.2293 7.68406 37.0496 8.0329C36.87 8.38173 36.6304 8.64236 36.3389 8.81076C36.0435 8.97916 35.7201 9.06336 35.3687 9.06336H34.9814C34.9095 9.06336 34.8456 9.0353 34.7818 8.97114C34.7219 8.911 34.6899 8.84284 34.6899 8.77066V4.69692C34.6899 4.62475 34.7179 4.56059 34.7818 4.49644C34.8416 4.43629 34.9095 4.40422 34.9814 4.40422H35.3687C35.7201 4.40422 36.0435 4.48842 36.3389 4.65682C36.6344 4.82522 36.87 5.08585 37.0496 5.43468C37.2293 5.79154 37.3211 6.22858 37.3211 6.7378Z" fill="white" fill-opacity="0.7"/>
<path d="M42.6021 7.03052C42.4264 6.82603 42.0871 6.65362 41.6838 6.5614C42.2348 6.28474 42.5223 5.8958 42.5223 5.39461C42.5223 5.12195 42.4504 4.87737 42.3067 4.66887C42.1629 4.46037 41.9593 4.29197 41.6998 4.17569C41.4402 4.05941 41.1328 3.99927 40.7894 3.99927H38.6293V4.29197H38.801C38.8729 4.29197 38.9368 4.32003 39.0007 4.38419C39.0606 4.44433 39.0925 4.5125 39.0925 4.58467V8.90701C39.0925 8.97918 39.0606 9.04734 39.0007 9.10749C38.9408 9.16763 38.8729 9.19971 38.801 9.19971H38.6094V9.49241H40.9531C41.3085 9.49241 41.6439 9.43226 41.9433 9.31198C42.2428 9.19169 42.4863 9.01527 42.658 8.78271C42.8337 8.55015 42.9215 8.26547 42.9215 7.93669C42.9175 7.57582 42.8137 7.2751 42.6021 7.03052ZM39.911 8.97918C39.8511 8.91904 39.8192 8.85087 39.8192 8.7787V6.83806H40.9332C41.3244 6.83806 41.6279 6.9383 41.8355 7.13878C42.0431 7.33926 42.1469 7.59988 42.1469 7.92065C42.1469 8.11311 42.099 8.30156 42.0112 8.47397C41.9194 8.65039 41.7836 8.79073 41.5999 8.89899C41.4203 9.00725 41.1967 9.06338 40.9332 9.06338H40.1106C40.0388 9.06739 39.9749 9.03933 39.911 8.97918ZM39.8232 6.42507V4.70095C39.8232 4.62877 39.8511 4.56462 39.915 4.50047C39.9749 4.44032 40.0428 4.40825 40.1146 4.40825H40.6417C41.021 4.40825 41.3045 4.50448 41.4802 4.68892C41.6558 4.87737 41.7437 5.11794 41.7437 5.41465C41.7437 5.71938 41.6598 5.96397 41.4961 6.14841C41.3324 6.32884 41.0849 6.42106 40.7535 6.42106H39.8232V6.42507Z" fill="white" fill-opacity="0.7"/>
<path d="M17.7689 5.73537C17.4614 5.56697 17.122 5.47876 16.7507 5.47876C16.3794 5.47876 16.036 5.56296 15.7326 5.73537C15.4251 5.90378 15.1856 6.14836 15.0059 6.4571C14.8262 6.76183 14.7344 7.12269 14.7344 7.52365C14.7344 7.92461 14.8262 8.28547 15.0059 8.5902C15.1856 8.89894 15.4291 9.14353 15.7326 9.31193C16.04 9.48033 16.3794 9.56854 16.7507 9.56854C17.122 9.56854 17.4654 9.48434 17.7689 9.31193C18.0763 9.14353 18.3159 8.89894 18.4955 8.5902C18.6752 8.28146 18.767 7.9206 18.767 7.52365C18.767 7.1267 18.6752 6.76183 18.4955 6.4571C18.3159 6.14836 18.0763 5.90378 17.7689 5.73537ZM18.0643 7.52365C18.0643 8.01683 17.9445 8.41779 17.705 8.70247C17.4694 8.99116 17.15 9.13952 16.7507 9.13952C16.3514 9.13952 16.032 8.99116 15.7964 8.70247C15.5569 8.41378 15.4371 8.01282 15.4371 7.52365C15.4371 7.03448 15.5569 6.62951 15.7964 6.34483C16.032 6.05614 16.3514 5.90779 16.7507 5.90779C17.15 5.90779 17.4694 6.05614 17.705 6.34483C17.9445 6.62951 18.0643 7.03047 18.0643 7.52365Z" fill="white" fill-opacity="0.7"/>
<path d="M31.8626 5.73537C31.5552 5.56697 31.2158 5.47876 30.8445 5.47876C30.4731 5.47876 30.1298 5.56296 29.8263 5.73537C29.5189 5.90378 29.2793 6.14836 29.0996 6.4571C28.92 6.76584 28.8281 7.12269 28.8281 7.52365C28.8281 7.92461 28.92 8.28547 29.0996 8.5902C29.2793 8.89493 29.5229 9.14353 29.8263 9.31193C30.1338 9.48033 30.4731 9.56854 30.8445 9.56854C31.2158 9.56854 31.5592 9.48434 31.8626 9.31193C32.17 9.14353 32.4096 8.89894 32.5893 8.5902C32.769 8.28146 32.8608 7.92461 32.8608 7.52365C32.8608 7.12269 32.769 6.76183 32.5893 6.4571C32.4096 6.15237 32.1661 5.90378 31.8626 5.73537ZM32.1581 7.52365C32.1581 8.01683 32.0383 8.41779 31.7987 8.70247C31.5632 8.99116 31.2437 9.13952 30.8445 9.13952C30.4452 9.13952 30.1258 8.99116 29.8902 8.70247C29.6506 8.41378 29.5308 8.01282 29.5308 7.52365C29.5308 7.02646 29.6506 6.62951 29.8902 6.34483C30.1258 6.05614 30.4452 5.90779 30.8445 5.90779C31.2437 5.90779 31.5632 6.05614 31.7987 6.34483C32.0343 6.62951 32.1581 7.03047 32.1581 7.52365Z" fill="white" fill-opacity="0.7"/>
<path d="M26.1753 5.47876C25.8559 5.47876 25.5644 5.54692 25.2969 5.68325C25.0334 5.81958 24.8257 6.00402 24.678 6.24058C24.5303 6.47314 24.4544 6.73376 24.4544 7.01443C24.4544 7.26303 24.5103 7.49158 24.6261 7.69606C24.7379 7.89253 24.8896 8.05693 25.0813 8.19325L24.5103 8.97512C24.4385 9.07135 24.4305 9.19966 24.4824 9.30391C24.5383 9.41217 24.6421 9.47632 24.7619 9.47632H24.9256C24.7659 9.58458 24.6381 9.71289 24.5502 9.86525C24.4464 10.0377 24.3945 10.2181 24.3945 10.4025C24.3945 10.7474 24.5463 11.032 24.8457 11.2486C25.1412 11.4611 25.5604 11.5693 26.0835 11.5693C26.4468 11.5693 26.7982 11.5092 27.1136 11.3929C27.433 11.2766 27.6925 11.1042 27.8882 10.8797C28.0838 10.6551 28.1836 10.3825 28.1836 10.0657C28.1836 9.73695 28.0639 9.50439 27.7844 9.27584C27.5448 9.08739 27.1695 8.98715 26.6983 8.98715H25.0973C25.0933 8.98715 25.0893 8.98314 25.0893 8.98314C25.0893 8.98314 25.0853 8.97512 25.0893 8.97111L25.5045 8.40977C25.6163 8.4619 25.7201 8.49397 25.812 8.51402C25.9078 8.53407 26.0156 8.54209 26.1354 8.54209C26.4708 8.54209 26.7782 8.47393 27.0417 8.3376C27.3052 8.20127 27.5169 8.01683 27.6726 7.78027C27.8243 7.54771 27.9002 7.28709 27.9002 7.01042C27.9002 6.71371 27.7564 6.16841 27.3651 5.89175C27.3651 5.88774 27.3691 5.88774 27.3691 5.88774L28.2316 5.98397V5.58702H26.8541C26.6345 5.51886 26.4109 5.47876 26.1753 5.47876ZM26.6584 7.99678C26.5067 8.07698 26.343 8.12108 26.1793 8.12108C25.9118 8.12108 25.6762 8.02485 25.4726 7.8364C25.2729 7.64795 25.1731 7.37129 25.1731 7.01443C25.1731 6.65758 25.2729 6.38493 25.4726 6.19247C25.6722 6.00402 25.9078 5.90779 26.1793 5.90779C26.347 5.90779 26.5067 5.94788 26.6584 6.03208C26.8101 6.11228 26.9339 6.23657 27.0337 6.40097C27.1296 6.56536 27.1815 6.76985 27.1815 7.01042C27.1815 7.25501 27.1336 7.4595 27.0337 7.61988C26.9379 7.79229 26.8101 7.91659 26.6584 7.99678ZM25.5724 9.47632H26.6584C26.9579 9.47632 27.1495 9.53647 27.2773 9.66477C27.4051 9.79308 27.4689 9.96549 27.4689 10.166C27.4689 10.4587 27.3532 10.6992 27.1216 10.8797C26.89 11.0601 26.5786 11.1523 26.1913 11.1523C25.8559 11.1523 25.5764 11.0762 25.3688 10.9318C25.1651 10.7875 25.0613 10.5669 25.0613 10.2863C25.0613 10.1098 25.1092 9.94545 25.2051 9.8011C25.3049 9.65675 25.4207 9.55251 25.5724 9.47632Z" fill="white" fill-opacity="0.7"/>
<path d="M43.7321 9.4202C43.6522 9.37609 43.5924 9.31194 43.5444 9.23977C43.5005 9.15957 43.4766 9.07938 43.4766 8.98716C43.4766 8.89494 43.5005 8.81074 43.5444 8.73456C43.5884 8.65436 43.6522 8.59823 43.7321 8.55412C43.812 8.51002 43.8998 8.48596 43.9996 8.48596C44.0994 8.48596 44.1873 8.51002 44.2671 8.55412C44.347 8.59823 44.4069 8.66238 44.4548 8.73456C44.4987 8.81475 44.5227 8.89494 44.5227 8.98716C44.5227 9.07938 44.4987 9.16358 44.4548 9.23977C44.4109 9.31996 44.347 9.37609 44.2671 9.4202C44.1873 9.4643 44.0994 9.48836 43.9996 9.48836C43.9038 9.48836 43.812 9.46831 43.7321 9.4202ZM44.2232 9.36406C44.2911 9.32798 44.339 9.27184 44.3789 9.2117C44.4149 9.14354 44.4348 9.07136 44.4348 8.98716C44.4348 8.90296 44.4149 8.83079 44.3789 8.76262C44.343 8.69446 44.2911 8.64234 44.2232 8.61026C44.1553 8.57417 44.0835 8.55412 43.9996 8.55412C43.9158 8.55412 43.8439 8.57417 43.776 8.61026C43.7081 8.64635 43.6602 8.70248 43.6203 8.76262C43.5844 8.83079 43.5644 8.90296 43.5644 8.98716C43.5644 9.07136 43.5844 9.14354 43.6203 9.2117C43.6562 9.27986 43.7081 9.33199 43.776 9.36406C43.8439 9.40015 43.9158 9.4202 43.9996 9.4202C44.0835 9.4202 44.1593 9.40015 44.2232 9.36406ZM43.784 9.22774V9.19165L43.792 9.18764H43.8159C43.8239 9.18764 43.8319 9.18363 43.8359 9.17962C43.8439 9.1716 43.8439 9.16759 43.8439 9.15957V8.79069C43.8439 8.78267 43.8399 8.77465 43.8359 8.77064C43.8279 8.76262 43.8239 8.76262 43.8159 8.76262H43.792L43.784 8.75861V8.72654L43.792 8.72253H43.9996C44.0595 8.72253 44.1034 8.73456 44.1394 8.76262C44.1753 8.79069 44.1913 8.82678 44.1913 8.87489C44.1913 8.91098 44.1793 8.94707 44.1513 8.97112C44.1234 8.99919 44.0914 9.01523 44.0515 9.01924L44.0994 9.03528L44.1913 9.17962C44.1992 9.19165 44.2072 9.19566 44.2192 9.19566H44.2432L44.2472 9.19967V9.23576L44.2432 9.23977H44.1194L44.1114 9.23576L43.9836 9.02325H43.9517V9.16358C43.9517 9.1716 43.9557 9.17962 43.9597 9.18363C43.9677 9.19165 43.9717 9.19165 43.9796 9.19165H44.0036L44.0116 9.19566V9.23175L44.0036 9.23576H43.792L43.784 9.22774ZM43.9876 8.96711C44.0196 8.96711 44.0475 8.95909 44.0635 8.93905C44.0795 8.92301 44.0914 8.89494 44.0914 8.86286C44.0914 8.83079 44.0835 8.80673 44.0675 8.78668C44.0515 8.76663 44.0276 8.75861 43.9996 8.75861H43.9836C43.9757 8.75861 43.9677 8.76262 43.9637 8.76663C43.9557 8.77465 43.9557 8.77866 43.9557 8.78668V8.9631H43.9876V8.96711Z" fill="white" fill-opacity="0.7"/>
</g>
<defs>
<clipPath id="clip0_2079_1897">
<rect width="44" height="11.1467" fill="white" transform="translate(0.515625 0.426636)"/>
</clipPath>
</defs>
</svg>
