<svg width="20" height="12" viewBox="0 0 20 12" fill="none" xmlns="http://www.w3.org/2000/svg">
<g clip-path="url(#clip0_2079_1855)">
<path d="M9.70354 11.9354C9.63951 11.9354 9.57591 11.9186 9.51978 11.8863L8.93487 11.5404C8.8475 11.4915 8.89013 11.4743 8.91895 11.4643C9.03543 11.4236 9.05907 11.4144 9.1834 11.3438C9.19647 11.3364 9.21357 11.339 9.22695 11.3469L9.6763 11.6133C9.69253 11.6221 9.71555 11.6221 9.7306 11.6133L11.4827 10.6029C11.4989 10.5937 11.5094 10.5749 11.5094 10.5556V8.53577C11.5094 8.51562 11.4989 8.49765 11.4823 8.48757L9.73095 7.47809C9.71472 7.46845 9.69323 7.46845 9.677 7.47809L7.926 8.48757C7.90902 8.49721 7.89824 8.51605 7.89824 8.53533V10.5552C7.89824 10.5745 7.90876 10.5929 7.92543 10.6021L8.40521 10.879C8.66572 11.0091 8.82492 10.8558 8.82492 10.7015V8.70796C8.82492 8.67948 8.84729 8.65757 8.87579 8.65757H9.09771C9.12533 8.65757 9.14814 8.67948 9.14814 8.70796V10.7024C9.14814 11.0494 8.95868 11.2488 8.62932 11.2488C8.52801 11.2488 8.44819 11.2488 8.2254 11.1392L7.76579 10.8746C7.6522 10.8089 7.58203 10.6862 7.58203 10.5552V8.53533C7.58203 8.40389 7.6522 8.28121 7.76579 8.21636L9.5196 7.20556C9.63056 7.14291 9.77792 7.14291 9.888 7.20556L11.6396 8.2168C11.7528 8.28208 11.8234 8.40433 11.8234 8.53577V10.5556C11.8234 10.6866 11.7528 10.8089 11.6396 10.8746L9.888 11.8854C9.83186 11.9178 9.76827 11.9345 9.70336 11.9345" fill="white" fill-opacity="0.5"/>
<path d="M10.2437 10.5436C9.47714 10.5436 9.31641 10.192 9.31641 9.89715C9.31641 9.86911 9.33904 9.84676 9.36715 9.84676H9.59345C9.61844 9.84676 9.6395 9.86495 9.64344 9.88962C9.67765 10.12 9.7794 10.2362 10.243 10.2362C10.6122 10.2362 10.7692 10.1529 10.7692 9.95722C10.7692 9.84462 10.7245 9.76093 10.1509 9.70485C9.67107 9.65753 9.3746 9.55194 9.3746 9.16856C9.3746 8.81541 9.67283 8.6051 10.1723 8.6051C10.7333 8.6051 11.0113 8.79964 11.0464 9.21763C11.0477 9.23209 11.0425 9.24611 11.0328 9.25663C11.0232 9.2667 11.0096 9.27284 10.9955 9.27284H10.7679C10.7442 9.27284 10.7236 9.25619 10.7188 9.2334C10.664 8.99111 10.5315 8.91356 10.1715 8.91356C9.76843 8.91356 9.72151 9.05376 9.72151 9.15892C9.72151 9.28642 9.77677 9.32366 10.3206 9.39552C10.8591 9.46694 11.1148 9.56771 11.1148 9.94583C11.1148 10.327 10.7964 10.5457 10.2412 10.5457M12.3753 8.40356H12.434C12.4823 8.40356 12.4915 8.36982 12.4915 8.3501C12.4915 8.2984 12.4559 8.2984 12.4362 8.2984H12.3757L12.3753 8.40356ZM12.3038 8.23794H12.434C12.4788 8.23794 12.5665 8.23794 12.5665 8.33783C12.5665 8.4075 12.5217 8.42196 12.495 8.43072C12.5472 8.43423 12.5507 8.4684 12.5577 8.5166C12.5612 8.54683 12.5669 8.59897 12.5774 8.6165H12.4972C12.495 8.59897 12.4827 8.50258 12.4827 8.49732C12.4774 8.47585 12.47 8.46533 12.4432 8.46533H12.377V8.61693H12.3038V8.23794ZM12.1472 8.42634C12.1472 8.5832 12.2739 8.71026 12.4296 8.71026C12.5866 8.71026 12.7134 8.58057 12.7134 8.42634C12.7134 8.26905 12.5849 8.14417 12.4292 8.14417C12.2757 8.14417 12.1468 8.26729 12.1468 8.4259M12.7678 8.42722C12.7678 8.61299 12.6156 8.76459 12.4301 8.76459C12.2459 8.76459 12.0924 8.61474 12.0924 8.42722C12.0924 8.23618 12.2494 8.08984 12.4301 8.08984C12.6121 8.08984 12.7673 8.23662 12.7673 8.42722" fill="white" fill-opacity="0.5"/>
<path fill-rule="evenodd" clip-rule="evenodd" d="M4.27682 4.0321C4.27682 3.95148 4.23428 3.87743 4.16464 3.83734L2.30706 2.76958C2.2757 2.75118 2.24058 2.74154 2.20496 2.74022H2.18576C2.15014 2.74154 2.11501 2.75118 2.08313 2.76958L0.225641 3.83734C0.156436 3.87765 0.113281 3.9517 0.113281 4.03232L0.11736 6.9083C0.11736 6.94817 0.137972 6.98542 0.173057 7.00513C0.207265 7.02616 0.250245 7.02616 0.284452 7.00513L1.38875 6.37333C1.45849 6.33188 1.50103 6.25862 1.50103 6.17879V4.83522C1.50103 4.75504 1.54357 4.68099 1.61308 4.64112L2.08322 4.37061C2.11813 4.35045 2.15646 4.34046 2.19549 4.34046C2.23391 4.34046 2.27312 4.35037 2.30706 4.37056L2.77698 4.64099C2.84654 4.68086 2.88925 4.7549 2.88925 4.83509V6.17857C2.88925 6.25831 2.93236 6.33192 3.00175 6.37311L4.10535 7.00448C4.13999 7.02507 4.1831 7.02507 4.21762 7.00448C4.25165 6.98476 4.27323 6.94752 4.27323 6.90765L4.27682 4.0321ZM13.0423 5.5295C13.0423 5.54953 13.0316 5.56806 13.0142 5.57796L12.3762 5.94539C12.3589 5.95534 12.3375 5.95534 12.3202 5.94539L11.6821 5.57796C11.6646 5.56802 11.654 5.54948 11.654 5.5295V4.79359C11.654 4.77353 11.6645 4.75504 11.6817 4.74496L12.3193 4.37692C12.3369 4.36684 12.3584 4.36684 12.3759 4.37692L13.014 4.74496C13.0316 4.75504 13.0421 4.77353 13.0421 4.79359L13.0423 5.5295ZM13.2147 0.0788837C13.1798 0.0595177 13.1375 0.0600434 13.1031 0.0800667C13.0689 0.100221 13.0477 0.137026 13.0477 0.176897V3.02484C13.0477 3.05288 13.0328 3.07874 13.0085 3.09276C12.9844 3.10678 12.9544 3.10678 12.93 3.09276L12.4647 2.825C12.3954 2.78496 12.3101 2.78496 12.2405 2.825L10.3823 3.8964C10.3129 3.93627 10.2701 4.01032 10.2701 4.09006V6.23347C10.2701 6.31365 10.3129 6.38726 10.3823 6.42757L12.2405 7.49971C12.3099 7.53958 12.3953 7.53958 12.4649 7.49971L14.3231 6.42713C14.3924 6.38682 14.4354 6.31321 14.4354 6.23303V0.891162C14.4354 0.809842 14.3911 0.73505 14.32 0.695311L13.2147 0.0788837ZM19.4025 4.77423C19.4715 4.73418 19.514 4.66022 19.514 4.58048V4.06101C19.514 3.9811 19.4715 3.90736 19.4023 3.86713L17.5559 2.79631C17.4862 2.756 17.4007 2.756 17.331 2.79631L15.4732 3.86757C15.4035 3.90788 15.3609 3.98149 15.3609 4.06167V6.2042C15.3609 6.28482 15.4044 6.35931 15.4741 6.39918L17.32 7.45029C17.388 7.48928 17.4713 7.48972 17.5402 7.4516L18.6567 6.83163C18.6918 6.81191 18.7142 6.77467 18.7142 6.73436C18.7142 6.69405 18.6927 6.65637 18.6576 6.63665L16.7885 5.56495C16.7534 5.54523 16.7319 5.50799 16.7319 5.46812V4.796C16.7319 4.75587 16.7529 4.71889 16.788 4.69891L17.3696 4.36373C17.4042 4.34357 17.4467 4.34357 17.4814 4.36373L18.0634 4.69891C18.098 4.71863 18.1195 4.75587 18.1195 4.79574V5.32414C18.1195 5.36402 18.141 5.40126 18.1756 5.42141C18.2103 5.44113 18.2533 5.44113 18.2879 5.42097L19.4025 4.77423Z" fill="white" fill-opacity="0.7"/>
<path fill-rule="evenodd" clip-rule="evenodd" d="M17.4212 4.67403C17.4344 4.66627 17.4509 4.66627 17.4642 4.67403L17.8208 4.87952C17.8341 4.88723 17.8423 4.90143 17.8423 4.91676V5.32818C17.8423 5.34352 17.8341 5.35771 17.8208 5.36542L17.4642 5.57091C17.4509 5.57867 17.4344 5.57867 17.4212 5.57091L17.0649 5.36542C17.0513 5.35771 17.043 5.34352 17.043 5.32818V4.91676C17.043 4.90143 17.0509 4.88723 17.0645 4.87952L17.4212 4.67403Z" fill="white" fill-opacity="0.5"/>
<mask id="mask0_2079_1855" style="mask-type:luminance" maskUnits="userSpaceOnUse" x="5" y="2" width="5" height="6">
<path d="M7.17026 2.80702L5.3226 3.87245C5.25339 3.91233 5.21094 3.98593 5.21094 4.0655V6.19787C5.21094 6.27748 5.25339 6.35104 5.3226 6.39092L7.17039 7.45719C7.23947 7.49693 7.32464 7.49693 7.39362 7.45719L9.24111 6.39092C9.30997 6.35104 9.35251 6.27744 9.35251 6.19787V4.0655C9.35251 3.98593 9.30997 3.91233 9.24067 3.87245L7.39345 2.80702C7.3588 2.78717 7.32021 2.77722 7.28161 2.77722C7.24302 2.77722 7.20443 2.78717 7.16978 2.80702" fill="white"/>
</mask>
<g mask="url(#mask0_2079_1855)">
<path d="M11.2158 3.69154L6.00938 1.14197L3.33984 6.5826L8.54611 9.1323L11.2158 3.69154Z" fill="url(#paint0_linear_2079_1855)"/>
</g>
<mask id="mask1_2079_1855" style="mask-type:luminance" maskUnits="userSpaceOnUse" x="5" y="2" width="5" height="6">
<path d="M5.24609 6.33329C5.26377 6.35621 5.28587 6.37606 5.31188 6.39095L6.89685 7.30558L7.16086 7.45718C7.20033 7.47997 7.24533 7.4896 7.28954 7.48632C7.30427 7.48514 7.31901 7.48237 7.33339 7.4783L9.2821 3.91355C9.26719 3.89734 9.24974 3.88375 9.23018 3.87236L8.02036 3.1744L7.38084 2.80679C7.36269 2.79628 7.343 2.78883 7.32295 2.78357L5.24609 6.33329Z" fill="white"/>
</mask>
<g mask="url(#mask1_2079_1855)">
<path d="M2.99219 4.4456L6.66844 9.41649L11.5304 5.82782L7.85388 0.857056L2.99219 4.4456Z" fill="url(#paint1_linear_2079_1855)"/>
</g>
<mask id="mask2_2079_1855" style="mask-type:luminance" maskUnits="userSpaceOnUse" x="5" y="2" width="5" height="6">
<path d="M7.24806 2.77842C7.21705 2.78149 7.18675 2.79113 7.15881 2.80699L5.31641 3.86936L7.3031 7.4845C7.33073 7.48055 7.35792 7.47135 7.38248 7.45716L9.23014 6.39089C9.28716 6.35785 9.32619 6.30194 9.33803 6.23859L7.31275 2.78206C7.29783 2.77912 7.28292 2.77759 7.26757 2.77759C7.26143 2.77759 7.25529 2.77789 7.24915 2.77846" fill="white"/>
</mask>
<g mask="url(#mask2_2079_1855)">
<path d="M5.31641 2.77759V7.48459H9.33728V2.77759H5.31641Z" fill="url(#paint2_linear_2079_1855)"/>
</g>
</g>
<defs>
<linearGradient id="paint0_linear_2079_1855" x1="8.61101" y1="2.41274" x2="5.94576" y2="7.85502" gradientUnits="userSpaceOnUse">
<stop offset="0.3" stop-color="white" stop-opacity="0.6"/>
<stop offset="0.5" stop-color="white" stop-opacity="0.6"/>
<stop offset="0.8" stop-color="white" stop-opacity="0.6"/>
</linearGradient>
<linearGradient id="paint1_linear_2079_1855" x1="4.85235" y1="6.95954" x2="9.71117" y2="3.36602" gradientUnits="userSpaceOnUse">
<stop offset="0.57" stop-color="white" stop-opacity="0.7"/>
<stop offset="0.72" stop-color="white" stop-opacity="0.7"/>
<stop offset="1" stop-color="white" stop-opacity="0.7"/>
</linearGradient>
<linearGradient id="paint2_linear_2079_1855" x1="5.31776" y1="5.13122" x2="9.33804" y2="5.13122" gradientUnits="userSpaceOnUse">
<stop offset="0.16" stop-color="white" stop-opacity="0.8"/>
<stop offset="0.38" stop-color="white" stop-opacity="0.8"/>
<stop offset="0.47" stop-color="white" stop-opacity="0.8"/>
<stop offset="0.7" stop-color="white" stop-opacity="0.8"/>
<stop offset="0.9" stop-color="white" stop-opacity="0.8"/>
</linearGradient>
<clipPath id="clip0_2079_1855">
<rect width="19.4008" height="11.8706" fill="white" transform="translate(0.113281 0.0646973)"/>
</clipPath>
</defs>
</svg>
