<svg width="67" height="22" viewBox="0 0 67 22" fill="none" xmlns="http://www.w3.org/2000/svg">
<g clip-path="url(#clip0_2079_1932)">
<path d="M9.53906 6H1.49219C0.952847 6 0.515625 6.43722 0.515625 6.97656V15.0234C0.515625 15.5628 0.952847 16 1.49219 16H9.53906C10.0784 16 10.5156 15.5628 10.5156 15.0234V6.97656C10.5156 6.43722 10.0784 6 9.53906 6Z" fill="white" fill-opacity="0.7"/>
<path d="M9.53906 6H1.49219C0.952847 6 0.515625 6.43722 0.515625 6.97656V15.0234C0.515625 15.5628 0.952847 16 1.49219 16H9.53906C10.0784 16 10.5156 15.5628 10.5156 15.0234V6.97656C10.5156 6.43722 10.0784 6 9.53906 6Z" fill="white" fill-opacity="0.7"/>
<path fill-rule="evenodd" clip-rule="evenodd" d="M6.70584 13.9575V14.9353C6.86479 15.0167 7.05277 15.0778 7.2698 15.1186C7.48684 15.1593 7.71557 15.1797 7.95604 15.1797C8.19039 15.1797 8.41301 15.1573 8.62393 15.1125C8.83484 15.0677 9.01978 14.9938 9.17873 14.8909C9.33768 14.7881 9.46352 14.6536 9.55623 14.4876C9.64895 14.3216 9.69531 14.1164 9.69531 13.872C9.69531 13.6947 9.66883 13.5394 9.61584 13.406C9.56285 13.2726 9.48644 13.1539 9.38658 13.05C9.28674 12.9462 9.16701 12.8529 9.02742 12.7704C8.88783 12.6879 8.73041 12.61 8.55516 12.5367C8.42678 12.4837 8.31164 12.4323 8.20975 12.3824C8.10785 12.3325 8.02125 12.2816 7.94992 12.2296C7.87859 12.1777 7.82357 12.1227 7.78486 12.0646C7.74615 12.0066 7.72678 11.9409 7.72678 11.8676C7.72678 11.8004 7.7441 11.7397 7.77875 11.6858C7.8134 11.6318 7.8623 11.5854 7.92547 11.5467C7.98865 11.508 8.06607 11.478 8.15777 11.4566C8.24949 11.4352 8.35137 11.4245 8.46346 11.4245C8.54496 11.4245 8.63105 11.4306 8.72174 11.4429C8.81242 11.4551 8.90361 11.4739 8.99533 11.4994C9.08703 11.5248 9.17617 11.5569 9.26279 11.5956C9.34939 11.6343 9.42938 11.6791 9.50273 11.7301V10.8165C9.35398 10.7595 9.19146 10.7172 9.0152 10.6897C8.83893 10.6622 8.63666 10.6484 8.40844 10.6484C8.17611 10.6484 7.95604 10.6734 7.74818 10.7233C7.54033 10.7732 7.35744 10.8511 7.19949 10.957C7.04156 11.063 6.91676 11.1979 6.82506 11.3619C6.73336 11.5259 6.6875 11.7219 6.6875 11.9501C6.6875 12.2413 6.77156 12.4899 6.93969 12.6956C7.10779 12.9013 7.36303 13.0755 7.70539 13.2181C7.83988 13.2731 7.96521 13.3271 8.08137 13.38C8.19752 13.433 8.29789 13.488 8.38244 13.545C8.46701 13.6021 8.53375 13.6642 8.58268 13.7314C8.63158 13.7986 8.65604 13.875 8.65604 13.9606C8.65604 14.0237 8.64074 14.0823 8.61018 14.1362C8.57961 14.1902 8.53324 14.2371 8.47109 14.2768C8.40895 14.3165 8.3315 14.3476 8.23879 14.37C8.14605 14.3924 8.03756 14.4036 7.91324 14.4036C7.70131 14.4036 7.49143 14.3664 7.28356 14.2921C7.0757 14.2177 6.88312 14.1062 6.70584 13.9575ZM5.06211 11.5485H6.31641V10.7461H2.82031V11.5485H4.06848V15.1211H5.06211V11.5485Z" fill="black" fill-opacity="0.5"/>
</g>
<path d="M18.493 14V7.05518H15.8988V6.12598H22.14V7.05518H19.535V14H18.493ZM22.5014 16.1968L22.394 15.2891C22.6053 15.3464 22.7897 15.375 22.9472 15.375C23.1621 15.375 23.3339 15.3392 23.4628 15.2676C23.5918 15.196 23.6974 15.0957 23.7797 14.9668C23.8406 14.8701 23.9391 14.6302 24.0752 14.2471C24.0931 14.1934 24.1217 14.1146 24.1611 14.0107L21.9965 8.2959H23.0385L24.2255 11.5991C24.3795 12.0181 24.5174 12.4585 24.6391 12.9204C24.7501 12.4764 24.8826 12.0431 25.0366 11.6206L26.2558 8.2959H27.2226L25.0527 14.0967C24.8199 14.7233 24.6391 15.1548 24.5102 15.3911C24.3383 15.7098 24.1414 15.9425 23.9194 16.0894C23.6974 16.2397 23.4324 16.3149 23.1245 16.3149C22.9383 16.3149 22.7306 16.2756 22.5014 16.1968ZM28.1104 16.186V8.2959H28.9912V9.03711C29.1989 8.74707 29.4335 8.53044 29.6949 8.38721C29.9563 8.2404 30.2732 8.16699 30.6455 8.16699C31.1325 8.16699 31.5622 8.29232 31.9346 8.54297C32.307 8.79362 32.5881 9.14811 32.7779 9.60645C32.9676 10.0612 33.0625 10.5607 33.0625 11.105C33.0625 11.6886 32.9569 12.215 32.7456 12.6841C32.538 13.1496 32.2336 13.5076 31.8326 13.7583C31.4351 14.0054 31.0162 14.1289 30.5757 14.1289C30.2535 14.1289 29.9634 14.0609 29.7056 13.9248C29.4514 13.7887 29.2419 13.6169 29.0772 13.4092V16.186H28.1104ZM28.9859 11.1802C28.9859 11.9142 29.1345 12.4567 29.4317 12.8076C29.7289 13.1585 30.0887 13.334 30.5113 13.334C30.941 13.334 31.308 13.1532 31.6123 12.7915C31.9203 12.4263 32.0743 11.8623 32.0743 11.0996C32.0743 10.3727 31.9239 9.82845 31.6231 9.4668C31.3259 9.10514 30.9696 8.92432 30.5542 8.92432C30.1425 8.92432 29.7772 9.11768 29.4585 9.50439C29.1434 9.88753 28.9859 10.4461 28.9859 11.1802ZM38.2042 12.1631L39.2032 12.2866C39.0457 12.8703 38.7539 13.3232 38.3278 13.6455C37.9017 13.9678 37.3574 14.1289 36.6949 14.1289C35.8606 14.1289 35.1982 13.8729 34.7076 13.3608C34.2207 12.8452 33.9772 12.1237 33.9772 11.1963C33.9772 10.2367 34.2242 9.49186 34.7184 8.96191C35.2125 8.43197 35.8535 8.16699 36.6412 8.16699C37.4039 8.16699 38.027 8.4266 38.5104 8.9458C38.9938 9.46501 39.2355 10.1955 39.2355 11.1372C39.2355 11.1945 39.2337 11.2804 39.2301 11.395H34.9762C35.012 12.0216 35.1892 12.5015 35.5079 12.8345C35.8266 13.1675 36.2241 13.334 36.7003 13.334C37.0548 13.334 37.3574 13.2409 37.608 13.0547C37.8587 12.8685 38.0574 12.5713 38.2042 12.1631ZM35.0299 10.6001H38.215C38.172 10.1203 38.0503 9.76042 37.8497 9.52051C37.5418 9.14811 37.1425 8.96191 36.652 8.96191C36.208 8.96191 35.8338 9.11051 35.5294 9.40771C35.2286 9.70492 35.0621 10.1024 35.0299 10.6001ZM40.1018 12.2974L41.0578 12.147C41.1115 12.5301 41.2601 12.8237 41.5036 13.0278C41.7507 13.2319 42.0944 13.334 42.5349 13.334C42.9789 13.334 43.3083 13.2445 43.5232 13.0654C43.738 12.8828 43.8454 12.6698 43.8454 12.4263C43.8454 12.2078 43.7505 12.036 43.5607 11.9106C43.4283 11.8247 43.0988 11.7155 42.5725 11.583C41.8635 11.404 41.3711 11.25 41.0954 11.1211C40.8233 10.9886 40.6156 10.8078 40.4724 10.5786C40.3327 10.3459 40.2629 10.0898 40.2629 9.81055C40.2629 9.55632 40.3202 9.32178 40.4348 9.10693C40.5529 8.88851 40.7123 8.70768 40.9128 8.56445C41.0632 8.45345 41.2673 8.36035 41.5251 8.28516C41.7865 8.20638 42.0658 8.16699 42.363 8.16699C42.8106 8.16699 43.2027 8.23145 43.5393 8.36035C43.8794 8.48926 44.1301 8.66471 44.2912 8.88672C44.4524 9.10514 44.5634 9.39876 44.6242 9.76758L43.6789 9.89648C43.6359 9.60286 43.5106 9.3737 43.3029 9.20898C43.0988 9.04427 42.8088 8.96191 42.4328 8.96191C41.9888 8.96191 41.6719 9.03532 41.4821 9.18213C41.2924 9.32894 41.1975 9.50081 41.1975 9.69775C41.1975 9.82308 41.2369 9.93587 41.3156 10.0361C41.3944 10.14 41.5179 10.2259 41.6862 10.2939C41.7829 10.3298 42.0676 10.4121 42.5402 10.541C43.2242 10.7236 43.7004 10.874 43.969 10.9922C44.2411 11.1068 44.4541 11.2751 44.6081 11.4971C44.7621 11.7191 44.8391 11.9948 44.8391 12.3242C44.8391 12.6465 44.7442 12.9508 44.5544 13.2373C44.3682 13.5202 44.0979 13.7404 43.7434 13.8979C43.3889 14.0519 42.9878 14.1289 42.5402 14.1289C41.799 14.1289 41.2333 13.9749 40.843 13.667C40.4563 13.359 40.2092 12.9025 40.1018 12.2974ZM49.7767 11.9106L50.7273 12.0342C50.6235 12.6895 50.3567 13.2033 49.927 13.5757C49.5009 13.9445 48.9764 14.1289 48.3533 14.1289C47.5727 14.1289 46.9443 13.8747 46.4681 13.3662C45.9954 12.8542 45.7591 12.1219 45.7591 11.1694C45.7591 10.5535 45.8611 10.0146 46.0652 9.55273C46.2693 9.09082 46.5791 8.74528 46.9944 8.51611C47.4134 8.28337 47.8681 8.16699 48.3587 8.16699C48.9781 8.16699 49.4848 8.32454 49.8787 8.63965C50.2726 8.95117 50.525 9.39518 50.636 9.97168L49.6961 10.1167C49.6066 9.73356 49.4472 9.44531 49.2181 9.25195C48.9925 9.05859 48.7185 8.96191 48.3963 8.96191C47.9093 8.96191 47.5136 9.13737 47.2093 9.48828C46.9049 9.83561 46.7527 10.387 46.7527 11.1426C46.7527 11.9089 46.8995 12.4657 47.1932 12.813C47.4868 13.1603 47.8699 13.334 48.3426 13.334C48.7221 13.334 49.039 13.2176 49.2933 12.9849C49.5475 12.7521 49.7086 12.394 49.7767 11.9106ZM51.6097 14V8.2959H52.4799V9.16064C52.7019 8.75602 52.906 8.48926 53.0922 8.36035C53.2819 8.23145 53.4896 8.16699 53.7152 8.16699C54.0411 8.16699 54.3723 8.27083 54.7089 8.47852L54.3759 9.37549C54.1395 9.23584 53.9032 9.16602 53.6669 9.16602C53.4556 9.16602 53.2658 9.23047 53.0975 9.35938C52.9292 9.4847 52.8093 9.66016 52.7377 9.88574C52.6302 10.2295 52.5765 10.6055 52.5765 11.0137V14H51.6097ZM55.3549 7.23779V6.12598H56.3217V7.23779H55.3549ZM55.3549 14V8.2959H56.3217V14H55.3549ZM57.8648 16.186V8.2959H58.7456V9.03711C58.9533 8.74707 59.1879 8.53044 59.4493 8.38721C59.7107 8.2404 60.0275 8.16699 60.3999 8.16699C60.8869 8.16699 61.3166 8.29232 61.689 8.54297C62.0614 8.79362 62.3425 9.14811 62.5323 9.60645C62.722 10.0612 62.8169 10.5607 62.8169 11.105C62.8169 11.6886 62.7113 12.215 62.5 12.6841C62.2924 13.1496 61.988 13.5076 61.587 13.7583C61.1895 14.0054 60.7705 14.1289 60.3301 14.1289C60.0079 14.1289 59.7178 14.0609 59.46 13.9248C59.2058 13.7887 58.9963 13.6169 58.8316 13.4092V16.186H57.8648ZM58.7403 11.1802C58.7403 11.9142 58.8889 12.4567 59.1861 12.8076C59.4833 13.1585 59.8431 13.334 60.2657 13.334C60.6954 13.334 61.0624 13.1532 61.3667 12.7915C61.6747 12.4263 61.8287 11.8623 61.8287 11.0996C61.8287 10.3727 61.6783 9.82845 61.3775 9.4668C61.0803 9.10514 60.724 8.92432 60.3086 8.92432C59.8969 8.92432 59.5316 9.11768 59.2129 9.50439C58.8978 9.88753 58.7403 10.4461 58.7403 11.1802ZM66.1647 13.1353L66.3043 13.9893C66.0322 14.0465 65.7887 14.0752 65.5739 14.0752C65.2229 14.0752 64.9508 14.0197 64.7575 13.9087C64.5641 13.7977 64.428 13.6527 64.3492 13.4736C64.2705 13.291 64.2311 12.9097 64.2311 12.3296V9.04785H63.5221V8.2959H64.2311V6.8833L65.1925 6.30322V8.2959H66.1647V9.04785H65.1925V12.3833C65.1925 12.659 65.2086 12.8363 65.2408 12.915C65.2767 12.9938 65.3322 13.0565 65.4074 13.103C65.4861 13.1496 65.5971 13.1729 65.7404 13.1729C65.8478 13.1729 65.9892 13.1603 66.1647 13.1353Z" fill="white" fill-opacity="0.7"/>
<defs>
<clipPath id="clip0_2079_1932">
<rect width="10" height="10" fill="white" transform="translate(0.515625 6)"/>
</clipPath>
</defs>
</svg>
