<svg width="16" height="12" viewBox="0 0 16 12" fill="none" xmlns="http://www.w3.org/2000/svg">
<g clip-path="url(#clip0_2171_2290)">
<path d="M1.66121 10.4318C1.63279 11.2476 2.26847 12 3.12771 12H11.9322C12.7914 12 13.4271 11.2476 13.3987 10.4318C13.3714 9.64803 13.4069 8.63279 13.6624 7.805C13.9187 6.97465 14.3509 6.44979 15.0588 6.38235V5.61765C14.3509 5.55021 13.9187 5.02535 13.6624 4.195C13.4069 3.36721 13.3714 2.35197 13.3987 1.56821C13.4271 0.752353 12.7914 -4.47035e-08 11.9322 -4.47035e-08H3.12771C2.26847 -4.47035e-08 1.63279 0.752353 1.66124 1.56821C1.6885 2.35197 1.65306 3.36721 1.39753 4.195C1.14124 5.02535 0.707941 5.55021 0 5.61765V6.38235C0.707912 6.44979 1.14124 6.97465 1.39753 7.805C1.65306 8.63279 1.6885 9.64803 1.66121 10.4318Z" fill="url(#paint0_linear_2171_2290)"/>
<g filter="url(#filter0_d_2171_2290)">
<path d="M7.85406 2.81003C9.24515 2.81003 10.0834 3.49115 10.0834 4.61459C10.0834 5.46379 9.48529 6.07859 8.59717 6.17591V6.21129C9.24967 6.31744 9.7617 6.92338 9.7617 7.60009C9.7617 8.56429 9.00047 9.19238 7.84047 9.19238H5.23047V2.81003H7.85406ZM6.24547 8.38297H7.59579C8.32985 8.38297 8.7467 8.05568 8.7467 7.463C8.7467 6.8305 8.26188 6.47668 7.38282 6.47668H6.24547V8.38297ZM6.24547 3.61941V5.72032H7.5867C8.54732 5.72032 9.04576 5.3665 9.04576 4.6765C9.04576 3.98653 8.56094 3.61941 7.64562 3.61941H6.24547Z" fill="url(#paint1_linear_2171_2290)"/>
<path d="M7.85406 2.81003C9.24515 2.81003 10.0834 3.49115 10.0834 4.61459C10.0834 5.46379 9.48529 6.07859 8.59717 6.17591V6.21129C9.24967 6.31744 9.7617 6.92338 9.7617 7.60009C9.7617 8.56429 9.00047 9.19238 7.84047 9.19238H5.23047V2.81003H7.85406ZM6.24547 8.38297H7.59579C8.32985 8.38297 8.7467 8.05568 8.7467 7.463C8.7467 6.8305 8.26188 6.47668 7.38282 6.47668H6.24547V8.38297ZM6.24547 3.61941V5.72032H7.5867C8.54732 5.72032 9.04576 5.3665 9.04576 4.6765C9.04576 3.98653 8.56094 3.61941 7.64562 3.61941H6.24547Z" stroke="white" stroke-width="0.0294118"/>
</g>
</g>
<defs>
<filter id="filter0_d_2171_2290" x="4.74426" y="2.44247" width="5.82399" height="7.3528" filterUnits="userSpaceOnUse" color-interpolation-filters="sRGB">
<feFlood flood-opacity="0" result="BackgroundImageFix"/>
<feColorMatrix in="SourceAlpha" type="matrix" values="0 0 0 0 0 0 0 0 0 0 0 0 0 0 0 0 0 0 127 0" result="hardAlpha"/>
<feOffset dy="0.117647"/>
<feGaussianBlur stdDeviation="0.235294"/>
<feColorMatrix type="matrix" values="0 0 0 0 0 0 0 0 0 0 0 0 0 0 0 0 0 0 0.15 0"/>
<feBlend mode="normal" in2="BackgroundImageFix" result="effect1_dropShadow_2171_2290"/>
<feBlend mode="normal" in="SourceGraphic" in2="effect1_dropShadow_2171_2290" result="shape"/>
</filter>
<linearGradient id="paint0_linear_2171_2290" x1="2.23762" y1="11.6824" x2="15.3965" y2="1.23691" gradientUnits="userSpaceOnUse">
<stop stop-color="#9013FE"/>
<stop offset="1" stop-color="#6610F2"/>
</linearGradient>
<linearGradient id="paint1_linear_2171_2290" x1="5.6895" y1="8.77229" x2="8.63085" y2="3.79782" gradientUnits="userSpaceOnUse">
<stop stop-color="white"/>
<stop offset="1" stop-color="#F1E5FC"/>
</linearGradient>
<clipPath id="clip0_2171_2290">
<rect width="15.0588" height="12" fill="white" transform="matrix(1 0 0 -1 0 12)"/>
</clipPath>
</defs>
</svg>
