<svg width="12" height="12" viewBox="0 0 12 12" fill="none" xmlns="http://www.w3.org/2000/svg">
<g clip-path="url(#clip0_2171_2274)">
<path d="M12 0H0V12H12V0Z" fill="#F7DF1E"/>
<path d="M8.06149 9.37484C8.3032 9.7695 8.61768 10.0596 9.17387 10.0596C9.64111 10.0596 9.93958 9.82607 9.93958 9.50341C9.93958 9.11674 9.63292 8.97979 9.11863 8.75484L8.83673 8.63388C8.02301 8.28722 7.48244 7.85293 7.48244 6.93484C7.48244 6.08912 8.12682 5.44531 9.13387 5.44531C9.85082 5.44531 10.3663 5.69484 10.7377 6.34817L9.85958 6.91198C9.66625 6.56531 9.45768 6.42874 9.13387 6.42874C8.80358 6.42874 8.59425 6.63826 8.59425 6.91198C8.59425 7.25026 8.80378 7.38722 9.28758 7.59674L9.56949 7.7175C10.5276 8.12836 11.0685 8.54722 11.0685 9.48893C11.0685 10.5042 10.271 11.0604 9.19997 11.0604C8.15273 11.0604 7.47616 10.5613 7.14511 9.90722L8.06149 9.37484ZM4.07806 9.47255C4.2552 9.78684 4.41635 10.0526 4.80378 10.0526C5.17425 10.0526 5.40797 9.9076 5.40797 9.34398V5.50969H6.53558V9.35922C6.53558 10.5268 5.85101 11.0583 4.85178 11.0583C3.94892 11.0583 3.42606 10.591 3.16016 10.0283L4.07806 9.47255Z" fill="black"/>
</g>
<defs>
<clipPath id="clip0_2171_2274">
<rect width="12" height="12" fill="white"/>
</clipPath>
</defs>
</svg>
