<svg width="12" height="12" viewBox="0 0 12 12" fill="none" xmlns="http://www.w3.org/2000/svg">
<g clip-path="url(#clip0_2171_2278)">
<path d="M6 12C9.31371 12 12 9.31371 12 6C12 2.68629 9.31371 0 6 0C2.68629 0 0 2.68629 0 6C0 9.31371 2.68629 12 6 12Z" fill="#13AA52"/>
<path d="M7.60255 5.26687C7.22357 3.59426 6.3279 3.0443 6.23146 2.83418C6.12599 2.68594 6.01911 2.42227 6.01911 2.42227C6.01736 2.41781 6.01454 2.40996 6.01126 2.40234C6.00036 2.55059 5.99474 2.60777 5.85458 2.7573C5.63755 2.92699 4.52404 3.86133 4.43345 5.76164C4.34896 7.53398 5.71372 8.59008 5.89829 8.72473L5.91927 8.73961V8.73832C5.92044 8.74723 5.97786 9.16019 6.01818 9.59777H6.16279C6.19672 9.28846 6.24757 8.98124 6.31513 8.6775L6.32685 8.66988C6.40941 8.61069 6.48812 8.5463 6.56251 8.47711L6.57095 8.46949C6.96329 8.10703 7.66864 7.26867 7.66173 5.93203C7.66027 5.70907 7.64048 5.4866 7.60255 5.26687ZM6.00282 7.72406C6.00282 7.72406 6.00282 5.23828 6.08486 5.23875C6.14884 5.23875 6.23169 8.44512 6.23169 8.44512C6.11779 8.43141 6.00282 7.91742 6.00282 7.72406Z" fill="white"/>
</g>
<defs>
<clipPath id="clip0_2171_2278">
<rect width="12" height="12" fill="white"/>
</clipPath>
</defs>
</svg>
