<svg width="11" height="12" viewBox="0 0 11 12" fill="none" xmlns="http://www.w3.org/2000/svg">
<g clip-path="url(#clip0_2171_2282)">
<path d="M5.24922 11.9061C5.09219 11.9061 4.93281 11.8639 4.79453 11.7842L3.34844 10.9287C3.13281 10.8068 3.23828 10.7646 3.30859 10.7412C3.59687 10.6404 3.65547 10.6193 3.9625 10.4436C3.99531 10.4248 4.0375 10.4318 4.07031 10.4529L5.18125 11.1115C5.22109 11.135 5.27734 11.135 5.31484 11.1115L9.64375 8.61309C9.68359 8.58965 9.70937 8.54277 9.70937 8.4959V3.49902C9.70937 3.4498 9.68359 3.40527 9.64141 3.37949L5.31484 0.883399C5.275 0.859961 5.22109 0.859961 5.18125 0.883399L0.857031 3.38184C0.814844 3.40527 0.789062 3.45215 0.789062 3.50137V8.4959C0.789062 8.54277 0.814844 8.58965 0.857031 8.61074L2.04297 9.29512C2.6875 9.61621 3.08125 9.23887 3.08125 8.85684V3.92559C3.08125 3.85527 3.1375 3.80137 3.20781 3.80137H3.75625C3.82422 3.80137 3.88281 3.85527 3.88281 3.92559V8.85918C3.88281 9.71699 3.41406 10.2092 2.60078 10.2092C2.35 10.2092 2.15312 10.2092 1.60469 9.93731L0.470312 9.2834C0.189062 9.12168 0.015625 8.81934 0.015625 8.49356V3.49902C0.015625 3.17559 0.189062 2.8709 0.470312 2.70918L4.79453 0.210742C5.06875 0.0560547 5.43203 0.0560547 5.70391 0.210742L10.0328 2.71152C10.3141 2.87324 10.4875 3.17559 10.4875 3.50137V8.4959C10.4875 8.81934 10.3141 9.12168 10.0328 9.28574L5.70391 11.7842C5.56562 11.8639 5.40859 11.9061 5.24922 11.9061ZM8.74375 6.98184C8.74375 6.04668 8.11094 5.79824 6.78203 5.62246C5.43672 5.44434 5.30078 5.35293 5.30078 5.03887C5.30078 4.77871 5.41562 4.43184 6.41172 4.43184C7.3 4.43184 7.62812 4.62402 7.76406 5.22402C7.77578 5.28027 7.82734 5.32246 7.88594 5.32246H8.44844C8.48359 5.32246 8.51641 5.3084 8.53984 5.28262C8.56328 5.25684 8.575 5.22168 8.57265 5.18652C8.48594 4.15293 7.79922 3.67246 6.41172 3.67246C5.17656 3.67246 4.44062 4.19277 4.44062 5.06699C4.44062 6.01387 5.17422 6.27637 6.35781 6.39356C7.77578 6.53184 7.88594 6.74043 7.88594 7.01934C7.88594 7.50215 7.49687 7.7084 6.58516 7.7084C5.43906 7.7084 5.18828 7.42012 5.10391 6.85059C5.09453 6.78965 5.04297 6.74512 4.97969 6.74512H4.41953C4.34922 6.74512 4.29531 6.80137 4.29531 6.86934C4.29531 7.59824 4.69141 8.46777 6.5875 8.46777C7.95625 8.46543 8.74375 7.92402 8.74375 6.98184Z" fill="#4BB543"/>
</g>
<defs>
<clipPath id="clip0_2171_2282">
<rect width="10.5" height="12" fill="white"/>
</clipPath>
</defs>
</svg>
