<svg width="14" height="12" viewBox="0 0 14 12" fill="none" xmlns="http://www.w3.org/2000/svg">
<g clip-path="url(#clip0_2171_2355)">
<path d="M6.51214 7.18102C7.16605 7.18102 7.69616 6.65092 7.69616 5.997C7.69616 5.34309 7.16605 4.81299 6.51214 4.81299C5.85823 4.81299 5.32812 5.34309 5.32812 5.997C5.32812 6.65092 5.85823 7.18102 6.51214 7.18102Z" fill="#00D8FF" fill-opacity="0.7"/>
<path d="M6.50992 8.66108C9.77949 8.66108 12.43 7.46835 12.43 5.99704C12.43 4.52574 9.77949 3.33301 6.50992 3.33301C3.24035 3.33301 0.589844 4.52574 0.589844 5.99704C0.589844 7.46835 3.24035 8.66108 6.50992 8.66108Z" stroke="#00D8FF" stroke-opacity="0.7" stroke-width="0.592008"/>
<path d="M4.20126 7.32906C5.83605 10.1606 8.19424 11.8596 9.46843 11.124C10.7426 10.3883 10.4503 7.49655 8.81551 4.66502C7.18072 1.83349 4.82253 0.134451 3.54835 0.870104C2.27416 1.60576 2.56648 4.49753 4.20126 7.32906Z" stroke="#00D8FF" stroke-opacity="0.7" stroke-width="0.592008"/>
<path d="M4.20306 4.66505C2.56828 7.49658 2.27595 10.3884 3.55014 11.124C4.82433 11.8597 7.18252 10.1606 8.8173 7.32909C10.4521 4.49756 10.7444 1.60578 9.47022 0.870131C8.19603 0.134478 5.83784 1.83352 4.20306 4.66505Z" stroke="#00D8FF" stroke-opacity="0.7" stroke-width="0.592008"/>
</g>
<defs>
<clipPath id="clip0_2171_2355">
<rect width="13.0242" height="12" fill="white"/>
</clipPath>
</defs>
</svg>
